<svg width="20" height="20" viewBox="0 0 20 20" fill="none" xmlns="http://www.w3.org/2000/svg">
<path fill-rule="evenodd" clip-rule="evenodd" d="M6.25 16.25C6.25 15.5596 6.80964 15 7.5 15C8.19036 15 8.75 15.5596 8.75 16.25C8.75 16.9404 8.19036 17.5 7.5 17.5C6.80964 17.5 6.25 16.9404 6.25 16.25Z" fill="#FAFAFA"/>
<path fill-rule="evenodd" clip-rule="evenodd" d="M13.125 16.25C13.125 15.5596 13.6846 15 14.375 15C15.0654 15 15.625 15.5596 15.625 16.25C15.625 16.9404 15.0654 17.5 14.375 17.5C13.6846 17.5 13.125 16.9404 13.125 16.25Z" fill="#FAFAFA"/>
<path fill-rule="evenodd" clip-rule="evenodd" d="M1.875 3.75C1.875 3.40482 2.15482 3.125 2.5 3.125H5C5.29789 3.125 5.55438 3.33524 5.61285 3.62734L6.13777 6.25H16.25C16.4363 6.25 16.6128 6.33308 16.7316 6.4766C16.8503 6.62011 16.8988 6.80911 16.8639 6.99208L15.863 12.2405C15.7773 12.6721 15.5425 13.0598 15.1997 13.3358C14.8586 13.6104 14.4323 13.7569 13.9946 13.75H7.9304C7.49273 13.7569 7.06638 13.6104 6.7253 13.3358C6.38265 13.06 6.1479 12.6725 6.06208 12.241C6.06205 12.2409 6.06212 12.2412 6.06208 12.241L5.01799 7.0245C5.01376 7.00725 5.01024 6.98971 5.00747 6.97192L4.4877 4.375H2.5C2.15482 4.375 1.875 4.09518 1.875 3.75ZM6.38796 7.5L7.28802 11.997C7.3166 12.1409 7.39487 12.2701 7.50913 12.3621C7.62339 12.4541 7.76637 12.5029 7.91302 12.5001L7.925 12.5H14L14.012 12.5001C14.1586 12.5029 14.3016 12.4541 14.4159 12.3621C14.5296 12.2705 14.6077 12.1421 14.6366 11.999L15.4945 7.5H6.38796Z" fill="#FAFAFA"/>
</svg>
