<svg width="18" height="20" viewBox="0 0 18 20" fill="none" xmlns="http://www.w3.org/2000/svg">
<path d="M9.28911 1.03644C9.52819 0.829905 9.86856 0.774042 10.1656 0.902977C10.5048 1.05035 10.7062 1.4035 10.6604 1.77049L9.94422 7.50047H16.5002C16.8236 7.50047 17.1175 7.68779 17.2546 7.98061C17.3745 8.23679 17.356 8.53346 17.2107 8.77L17.1407 8.86766L8.80734 18.8677C8.57051 19.1518 8.17416 19.2453 7.83485 19.098C7.49566 18.9506 7.29418 18.5974 7.34006 18.2304L8.0562 12.5005H1.50021C1.17687 12.5005 0.882969 12.3131 0.745819 12.0203C0.608739 11.7275 0.652777 11.3817 0.859751 11.1333L9.19308 1.13328L9.28911 1.03644ZM3.28 10.8338H9.00021C9.23923 10.8338 9.46703 10.9362 9.62521 11.1154C9.7834 11.2946 9.85668 11.5333 9.82704 11.7705L9.34608 15.6157L14.7204 9.16714H9.00021C8.76119 9.16714 8.5334 9.06475 8.37521 8.88556C8.21703 8.70637 8.14374 8.46763 8.17339 8.23045L8.65353 4.38442L3.28 10.8338Z" fill="#FAFAFA"/>
</svg>
