<svg width="24" height="24" viewBox="0 0 24 24" fill="none" xmlns="http://www.w3.org/2000/svg">
<path d="M11.9429 1.03375L18.4797 1.0285L20.3857 1.02865C20.8123 1.0288 21.2547 1.00477 21.6774 1.06957C22.0015 1.11927 22.2553 1.2402 22.4899 1.47023C22.9101 1.88216 22.9782 2.34426 22.9835 2.90406L22.9825 6.93003C22.9824 7.60398 23.0613 8.59996 22.9283 9.24284C22.8733 9.50863 22.7193 9.75718 22.5291 9.94879C22.3294 10.15 22.1303 10.2813 21.8537 10.3558C21.3049 10.5036 20.639 10.4339 20.0742 10.4336L17.6614 10.4304L16.8805 10.4324C15.7951 11.4508 14.5403 12.7638 13.1876 13.3902C12.9238 13.5124 12.5887 13.6343 12.3022 13.5251C12.1465 13.4658 12.0209 13.3355 11.9539 13.1842C11.6737 12.5504 12.362 11.083 12.6168 10.4337C12.0674 10.4301 11.5381 10.4665 11.0726 10.1164C10.755 9.87735 10.5269 9.5267 10.4703 9.13028C10.4172 8.75804 10.4446 8.35463 10.4443 7.97877L10.4444 5.91945L10.4442 3.74727C10.4437 3.28936 10.4158 2.8089 10.4778 2.35477C10.5156 2.07749 10.6017 1.85042 10.7738 1.62831C11.0702 1.24561 11.4779 1.08855 11.9429 1.03375ZM13.0355 12.3041C13.9338 11.7774 14.7277 11.0258 15.4812 10.314C15.7952 10.0172 16.1293 9.62564 16.4983 9.40224C16.9105 9.39034 17.3228 9.38712 17.7352 9.3926L20.0973 9.39577C20.5163 9.39587 20.9613 9.42587 21.3773 9.37673C21.5077 9.36132 21.6694 9.343 21.7674 9.24728C21.8329 9.18319 21.8959 9.10344 21.9128 9.01128C21.984 8.62384 21.9436 8.17741 21.9448 7.7814L21.9469 5.35903C21.9462 4.80877 22.0062 2.88626 21.9103 2.45575C21.8902 2.36569 21.8377 2.28685 21.7725 2.22292C21.663 2.11556 21.5488 2.09642 21.4015 2.08265C20.5059 1.99881 19.2989 2.06851 18.3759 2.06984L12.1316 2.06826C11.9445 2.07642 11.7743 2.08397 11.6396 2.23302C11.5327 2.35155 11.4872 2.51606 11.473 2.67164C11.4201 3.25288 11.492 3.87897 11.4858 4.46725L11.4797 7.3166C11.4796 7.84345 11.4515 8.38769 11.491 8.91275C11.5014 9.05241 11.5266 9.13701 11.6345 9.23177C12.116 9.65477 13.843 9.02659 13.9046 9.81908C13.9373 10.2391 13.4631 11.0712 13.3016 11.4953C13.2007 11.7599 13.1182 12.0334 13.0355 12.3041Z" fill="#212121"/>
<path d="M12.8765 5.22939C13.3862 5.1873 13.9172 5.2171 14.4291 5.21725L17.376 5.21807L19.4389 5.2146C19.7659 5.21424 20.1512 5.17515 20.4708 5.23735C20.6016 5.26282 20.736 5.34104 20.8105 5.45319C20.8865 5.56795 20.8994 5.71001 20.8677 5.84191C20.8223 6.0301 20.7102 6.12159 20.5526 6.22083C20.0512 6.27324 19.5264 6.24435 19.0222 6.24476L16.2967 6.24645L14.0904 6.24941C13.7221 6.24951 13.2658 6.29778 12.9096 6.21649C12.7849 6.18807 12.6599 6.10587 12.5937 5.99545C12.5251 5.88115 12.5217 5.74634 12.5536 5.6199C12.6031 5.42345 12.7088 5.3317 12.8765 5.22939Z" fill="#212121"/>
<path d="M14.4956 3.12523C15.2322 3.10145 20.2195 3.06543 20.5464 3.1632C20.6707 3.20034 20.776 3.30561 20.8331 3.4195C20.8924 3.53793 20.9035 3.68167 20.8596 3.80699C20.7985 3.9814 20.6626 4.07192 20.5037 4.14918C19.2742 4.19969 18.0247 4.15688 16.7933 4.15759C16.274 4.1579 14.8575 4.23184 14.4314 4.11861C14.3168 4.08815 14.2198 4.00028 14.165 3.89675C14.0952 3.76485 14.0887 3.58503 14.1355 3.44435C14.1892 3.28285 14.3543 3.19723 14.4956 3.12523Z" fill="#212121"/>
<path d="M12.9862 7.30367C13.6416 7.29157 18.6682 7.24688 18.965 7.34663C19.0925 7.38949 19.2141 7.46685 19.2737 7.59186C19.3357 7.72178 19.3307 7.90093 19.2775 8.03278C19.2142 8.18943 19.0821 8.26474 18.934 8.32746C18.199 8.34562 13.0664 8.39078 12.8127 8.27204C12.6975 8.21816 12.6 8.11636 12.5609 7.99441C12.5178 7.85965 12.5241 7.70387 12.5928 7.57885C12.6797 7.42052 12.819 7.35117 12.9862 7.30367Z" fill="#212121"/>
<path d="M12.9305 3.13774C12.9386 3.13577 12.9467 3.134 12.9549 3.13244C12.9631 3.13084 12.9713 3.12946 12.9796 3.1283C12.9878 3.12711 12.9961 3.12613 13.0044 3.12534C13.0127 3.12456 13.021 3.12398 13.0293 3.12361C13.0376 3.12323 13.046 3.12305 13.0543 3.12305C13.0626 3.12308 13.071 3.1233 13.0793 3.12371C13.0876 3.12412 13.0959 3.12475 13.1042 3.1256C13.1125 3.12641 13.1208 3.12744 13.129 3.12866C13.1372 3.12985 13.1454 3.13126 13.1536 3.1329C13.1618 3.13449 13.1699 3.1363 13.178 3.1383C13.1861 3.14031 13.1941 3.14252 13.2021 3.14494C13.2101 3.14732 13.218 3.1499 13.2259 3.15269C13.2337 3.15545 13.2415 3.15841 13.2492 3.16157C13.2569 3.16474 13.2646 3.16807 13.2721 3.17157C13.2797 3.17508 13.2871 3.17877 13.2945 3.18265C13.3019 3.18652 13.3092 3.19059 13.3164 3.19484C13.3235 3.19906 13.3306 3.20345 13.3376 3.20801C13.3446 3.2126 13.3514 3.21734 13.3582 3.22224C13.3649 3.22714 13.3715 3.23219 13.378 3.2374C13.3845 3.24264 13.3909 3.24801 13.3971 3.25352C13.4033 3.25903 13.4094 3.26471 13.4154 3.27056C13.4214 3.27638 13.4272 3.28233 13.4329 3.28842C13.4385 3.29451 13.4441 3.30074 13.4494 3.3071C13.4548 3.31349 13.46 3.31999 13.4651 3.32659C13.4702 3.33322 13.4751 3.33996 13.4798 3.3468C13.4846 3.35367 13.4891 3.36064 13.4935 3.36772C13.4979 3.37479 13.5022 3.38195 13.5062 3.3892C13.5103 3.39648 13.5142 3.40386 13.5179 3.41135C13.5216 3.41879 13.5251 3.42635 13.5284 3.434C13.5318 3.44162 13.5349 3.44933 13.5379 3.45711C13.5409 3.4649 13.5436 3.47276 13.5462 3.48069C13.5488 3.48862 13.5512 3.49659 13.5534 3.50462C13.5556 3.51265 13.5576 3.52073 13.5594 3.52886C13.5613 3.53699 13.5629 3.54517 13.5643 3.5534C13.5657 3.5616 13.567 3.56983 13.568 3.5781C13.569 3.5864 13.5699 3.5947 13.5705 3.603C13.5711 3.6113 13.5715 3.61962 13.5717 3.62795C13.572 3.63629 13.572 3.64462 13.5718 3.65295C13.5717 3.66129 13.5713 3.66961 13.5707 3.67791C13.5701 3.68624 13.5694 3.69454 13.5684 3.70281C13.5674 3.71107 13.5662 3.71932 13.5649 3.72755C13.5635 3.73579 13.5619 3.74397 13.5602 3.7521C13.5584 3.76023 13.5564 3.76832 13.5543 3.77639C13.5521 3.78445 13.5498 3.79244 13.5472 3.80037C13.5447 3.80829 13.542 3.81617 13.539 3.82399C13.5361 3.83178 13.533 3.83951 13.5297 3.84716C13.5264 3.85481 13.5229 3.8624 13.5193 3.86992C13.5156 3.8774 13.5118 3.88478 13.5078 3.89206C13.5037 3.89938 13.4996 3.90659 13.4952 3.9137C13.4909 3.92081 13.4863 3.9278 13.4816 3.93467C13.4769 3.94154 13.4721 3.94831 13.467 3.95498C13.462 3.96161 13.4568 3.96812 13.4515 3.97452C13.4462 3.98095 13.4407 3.98723 13.435 3.99335C13.4294 3.99947 13.4236 4.00546 13.4177 4.01131C13.4117 4.0172 13.4057 4.02291 13.3995 4.02846C13.3933 4.03403 13.387 4.03944 13.3805 4.04468C13.374 4.04995 13.3674 4.05506 13.3607 4.05999C13.354 4.06492 13.3472 4.0697 13.3402 4.07433C13.3333 4.07895 13.3263 4.08339 13.3191 4.08765C13.3119 4.09193 13.3047 4.09603 13.2973 4.09994C13.29 4.10389 13.2825 4.10763 13.275 4.11117C13.2675 4.11474 13.2599 4.11812 13.2522 4.12132C13.2445 4.12452 13.2367 4.12753 13.2289 4.13035C13.221 4.13318 13.2131 4.13581 13.2052 4.13826C13.1942 4.14163 13.183 4.14464 13.1718 4.14729C13.1605 4.14995 13.1492 4.15221 13.1379 4.15408C13.1265 4.15599 13.115 4.1575 13.1036 4.15862C13.0921 4.15975 13.0806 4.16048 13.069 4.16082C13.0575 4.16116 13.046 4.16112 13.0344 4.16071C13.0229 4.16031 13.0114 4.15951 12.9999 4.15832C12.9885 4.15716 12.9771 4.1556 12.9657 4.15362C12.9543 4.15168 12.943 4.14937 12.9318 4.14668C12.9206 4.144 12.9094 4.14093 12.8985 4.1375C12.8874 4.13403 12.8765 4.13022 12.8658 4.12607C12.855 4.12192 12.8444 4.11739 12.834 4.1125C12.8235 4.10763 12.8132 4.10243 12.8031 4.09688C12.793 4.0913 12.7831 4.0854 12.7734 4.07918C12.7637 4.07295 12.7542 4.06642 12.7449 4.05958C12.7356 4.05271 12.7265 4.04555 12.7177 4.0381C12.7089 4.03065 12.7004 4.02291 12.6921 4.01488C12.6838 4.00685 12.6758 3.99855 12.6681 3.98998C12.6604 3.98144 12.6529 3.97263 12.6457 3.96355C12.6386 3.9545 12.6317 3.94521 12.6252 3.93569C12.6187 3.9262 12.6125 3.91649 12.6066 3.90655C12.6008 3.89662 12.5952 3.8865 12.59 3.87619C12.5848 3.86589 12.5799 3.85543 12.5754 3.84481C12.5709 3.8342 12.5668 3.82343 12.563 3.81251C12.5592 3.80163 12.5558 3.79062 12.5527 3.7795C12.5496 3.76838 12.547 3.75715 12.5446 3.74582C12.5424 3.73453 12.5404 3.72317 12.5389 3.71174C12.5373 3.70031 12.5362 3.68882 12.5354 3.67729C12.5346 3.6658 12.5342 3.65426 12.5342 3.6427C12.5342 3.63117 12.5346 3.61965 12.5353 3.60815C12.5361 3.59662 12.5372 3.58514 12.5387 3.57371C12.5402 3.56228 12.5421 3.5509 12.5444 3.53957C12.5467 3.52825 12.5493 3.51702 12.5523 3.5059C12.5554 3.49477 12.5588 3.48375 12.5626 3.47283C12.5663 3.46191 12.5704 3.45115 12.5749 3.44053C12.5794 3.42988 12.5842 3.41941 12.5894 3.4091C12.5946 3.39879 12.6001 3.38866 12.6059 3.37869C12.6118 3.36876 12.6179 3.35903 12.6244 3.3495C12.631 3.33998 12.6378 3.33067 12.6449 3.32159C12.652 3.31251 12.6594 3.30368 12.6672 3.29511C12.6749 3.2865 12.6829 3.27818 12.6911 3.27016C12.6994 3.26209 12.7079 3.25432 12.7167 3.24684C12.7255 3.23935 12.7345 3.23217 12.7438 3.2253C12.753 3.21843 12.7625 3.21187 12.7722 3.20561C12.7819 3.19938 12.7918 3.19348 12.8019 3.1879C12.812 3.18229 12.8223 3.17703 12.8327 3.17213C12.8432 3.16724 12.8538 3.16269 12.8645 3.15851C12.8753 3.15433 12.8862 3.1505 12.8972 3.14703C12.9082 3.14356 12.9193 3.14046 12.9305 3.13774Z" fill="#212121"/>
<path d="M20.1698 7.34696C20.1776 7.34373 20.1854 7.3407 20.1933 7.33788C20.2013 7.33506 20.2093 7.33242 20.2173 7.32997C20.2254 7.32752 20.2335 7.32528 20.2417 7.32324C20.2498 7.32116 20.258 7.31931 20.2663 7.31767C20.2745 7.31601 20.2828 7.31456 20.2912 7.31334C20.2995 7.31208 20.3078 7.31102 20.3162 7.31017C20.3246 7.30936 20.333 7.30873 20.3414 7.30828C20.3498 7.30784 20.3582 7.30762 20.3666 7.30762C20.375 7.30759 20.3834 7.30777 20.3918 7.30818C20.4003 7.30856 20.4087 7.30915 20.417 7.30997C20.4254 7.31075 20.4338 7.31175 20.4421 7.31298C20.4504 7.31417 20.4587 7.31556 20.467 7.31716C20.4753 7.3188 20.4835 7.32062 20.4916 7.32262C20.4998 7.32463 20.508 7.32684 20.516 7.32926C20.5241 7.33167 20.5321 7.33427 20.5401 7.33706C20.548 7.33985 20.5558 7.34285 20.5636 7.34604C20.5714 7.34921 20.5791 7.35258 20.5868 7.35615C20.5944 7.35969 20.602 7.36343 20.6094 7.36737C20.6169 7.37129 20.6242 7.37538 20.6315 7.37967C20.6387 7.38396 20.6458 7.38841 20.6529 7.39304C20.6599 7.39767 20.6668 7.40246 20.6736 7.40743C20.6804 7.41239 20.6871 7.41753 20.6937 7.42284C20.7002 7.42811 20.7066 7.43355 20.7129 7.43917C20.7191 7.44478 20.7253 7.45054 20.7313 7.45646C20.7373 7.46235 20.7431 7.46839 20.7489 7.47458C20.7546 7.48077 20.7601 7.4871 20.7656 7.49356C20.7709 7.50002 20.7762 7.50661 20.7813 7.51331C20.7863 7.52004 20.7912 7.52688 20.796 7.53382C20.8007 7.54079 20.8053 7.54787 20.8097 7.55505C20.8141 7.56223 20.8183 7.5695 20.8223 7.57689C20.8264 7.58427 20.8303 7.59175 20.834 7.59934C20.8377 7.60689 20.8411 7.61454 20.8444 7.6223C20.8477 7.63006 20.8508 7.63788 20.8538 7.64577C20.8567 7.65366 20.8594 7.66162 20.862 7.66965C20.8645 7.67768 20.8669 7.68576 20.869 7.69389C20.8712 7.70205 20.8731 7.71025 20.8748 7.71848C20.8766 7.72672 20.8781 7.73498 20.8795 7.74328C20.8808 7.75162 20.882 7.75997 20.8829 7.76834C20.8838 7.7767 20.8846 7.78509 20.8851 7.79349C20.8856 7.80189 20.8859 7.8103 20.8861 7.8187C20.8862 7.82714 20.8861 7.83555 20.8858 7.84396C20.8855 7.85239 20.885 7.8608 20.8843 7.86916C20.8836 7.87757 20.8827 7.88595 20.8816 7.89432C20.8805 7.90265 20.8792 7.91095 20.8777 7.91922C20.8762 7.92752 20.8744 7.93577 20.8725 7.94397C20.8706 7.95217 20.8685 7.96031 20.8662 7.96841C20.8639 7.97651 20.8613 7.98455 20.8586 7.99254C20.8559 8.0005 20.853 8.0084 20.8499 8.01622C20.8469 8.02408 20.8436 8.03184 20.8401 8.03949C20.8366 8.04718 20.833 8.05476 20.8292 8.06225C20.8253 8.06973 20.8213 8.07713 20.8171 8.08444C20.8129 8.09176 20.8085 8.09895 20.804 8.10603C20.7994 8.1131 20.7947 8.12008 20.7898 8.12695C20.7849 8.13379 20.7799 8.14052 20.7747 8.14715C20.7695 8.15375 20.7641 8.16023 20.7586 8.1666C20.753 8.17292 20.7473 8.17913 20.7415 8.18522C20.7357 8.19127 20.7297 8.19719 20.7236 8.20298C20.7174 8.20876 20.7112 8.21439 20.7048 8.21987C20.6984 8.22534 20.6919 8.23067 20.6852 8.23584C20.6786 8.24097 20.6718 8.24596 20.6649 8.25079C20.658 8.25562 20.651 8.26028 20.6439 8.26477C20.6367 8.26926 20.6295 8.27356 20.6222 8.27768C20.6148 8.2818 20.6074 8.28574 20.5999 8.28952C20.5923 8.29329 20.5847 8.29688 20.577 8.30028C20.5666 8.30488 20.556 8.30913 20.5453 8.31304C20.5346 8.31695 20.5238 8.32049 20.5129 8.32365C20.5019 8.32685 20.4909 8.32969 20.4798 8.33218C20.4686 8.33462 20.4574 8.33672 20.4462 8.33845C20.4349 8.34015 20.4236 8.3415 20.4122 8.34248C20.4009 8.34347 20.3895 8.34406 20.3781 8.34427C20.3667 8.34451 20.3553 8.34437 20.344 8.34386C20.3326 8.34332 20.3212 8.34241 20.3099 8.34116C20.2986 8.33986 20.2873 8.33821 20.2761 8.33621C20.2649 8.3342 20.2537 8.33182 20.2427 8.32906C20.2316 8.32631 20.2207 8.3232 20.2098 8.31973C20.199 8.31626 20.1882 8.31243 20.1776 8.30824C20.167 8.30406 20.1566 8.29952 20.1463 8.29462C20.136 8.28976 20.1259 8.28455 20.1159 8.27901C20.106 8.2735 20.0962 8.26764 20.0866 8.26145C20.077 8.25526 20.0677 8.24876 20.0585 8.24196C20.0494 8.23516 20.0405 8.22806 20.0318 8.22068C20.0231 8.2133 20.0147 8.20563 20.0065 8.19767C19.9984 8.18971 19.9905 8.1815 19.9829 8.17303C19.9752 8.16459 19.9679 8.15588 19.9608 8.1469C19.9538 8.13795 19.947 8.12879 19.9406 8.1194C19.9341 8.11001 19.928 8.10041 19.9222 8.09062C19.9164 8.08082 19.9109 8.07084 19.9057 8.06067C19.9006 8.05049 19.8958 8.04017 19.8913 8.02969C19.8868 8.01921 19.8826 8.0086 19.8789 7.99785C19.8751 7.9871 19.8717 7.97623 19.8686 7.96525C19.8656 7.95426 19.8629 7.94319 19.8605 7.93203C19.8582 7.92087 19.8563 7.90965 19.8547 7.89835C19.8531 7.88709 19.8519 7.87578 19.851 7.86442C19.8502 7.85302 19.8497 7.84163 19.8496 7.83023C19.8495 7.81883 19.8498 7.80746 19.8504 7.7961C19.8511 7.78473 19.8522 7.77339 19.8536 7.76206C19.855 7.75077 19.8567 7.73951 19.8589 7.72828C19.861 7.71709 19.8636 7.70598 19.8664 7.69496C19.8693 7.68394 19.8726 7.67302 19.8762 7.6622C19.8797 7.65138 19.8837 7.6407 19.888 7.63016C19.8923 7.61961 19.897 7.60922 19.9019 7.59898C19.9069 7.58871 19.9123 7.57864 19.9179 7.56877C19.9236 7.55887 19.9295 7.54916 19.9358 7.53964C19.9421 7.53015 19.9487 7.52088 19.9556 7.51183C19.9625 7.50275 19.9697 7.49392 19.9772 7.48534C19.9847 7.47674 19.9925 7.4684 20.0005 7.46034C20.0085 7.45225 20.0168 7.44444 20.0254 7.43692C20.034 7.42937 20.0427 7.42212 20.0517 7.41518C20.0608 7.40824 20.07 7.40159 20.0795 7.39523C20.089 7.38891 20.0987 7.38289 20.1085 7.37717C20.1184 7.37146 20.1284 7.36608 20.1386 7.36105C20.1488 7.35601 20.1592 7.35132 20.1698 7.34696Z" fill="#212121"/>
<path d="M8.86002 3.34961C8.99238 3.3665 9.12026 3.4089 9.22027 3.50009C9.32395 3.59454 9.39758 3.72955 9.40014 3.87171C9.40304 4.03642 9.29563 4.20527 9.15684 4.28905C8.85436 4.47152 8.389 4.54566 8.04463 4.65996C7.90124 4.70735 7.75937 4.75888 7.61902 4.81457C7.47866 4.87029 7.34006 4.93009 7.2032 4.99398C7.06635 5.05783 6.93151 5.12566 6.79867 5.19747C6.6658 5.26928 6.53517 5.34494 6.40679 5.42444C6.27837 5.5039 6.1524 5.58709 6.02889 5.674C5.90537 5.76088 5.78451 5.85134 5.6663 5.94536C5.54812 6.03935 5.4328 6.13674 5.32034 6.23754C5.20784 6.33833 5.09842 6.44234 4.99209 6.54956C2.99196 8.57428 3.0983 10.4533 3.1181 13.052L4.1748 13.0496C4.16541 10.8633 4.13551 9.30997 5.69217 7.53712C6.30198 6.84255 7.87864 5.61517 8.83732 5.56665C8.98141 5.55935 9.13184 5.59042 9.23905 5.69273C9.33783 5.78703 9.3907 5.9248 9.38896 6.06053C9.38707 6.20595 9.32666 6.3449 9.21164 6.43552C8.97049 6.62554 8.6104 6.7181 8.32777 6.84036C7.72127 7.10274 7.15442 7.51518 6.69054 7.98375C5.13042 9.5598 5.20181 11.0813 5.21022 13.1271C5.42229 13.2327 5.61823 13.3379 5.79131 13.5023C6.12742 13.8215 6.2435 14.2399 6.25243 14.6888C6.26284 15.2116 6.24269 15.7356 6.24493 16.2585C6.24743 16.8438 6.32754 17.5336 6.19967 18.1039C6.13727 18.3825 6.00394 18.645 5.80366 18.8498C5.36611 19.2974 4.83569 19.3151 4.25466 19.3189C4.43544 19.6702 4.67225 19.9113 4.97581 20.1589C6.16365 20.9489 7.54528 21.0981 8.93462 20.9719C9.06867 20.5818 9.30625 20.2561 9.66848 20.0516C10.1881 19.7582 11.3198 19.7483 11.8808 19.9072C11.9071 19.9145 11.9332 19.9225 11.9591 19.9312C11.985 19.9398 12.0107 19.9491 12.0361 19.959C12.0615 19.969 12.0867 19.9795 12.1116 19.9908C12.1365 20.002 12.1611 20.0138 12.1854 20.0262C12.2098 20.0386 12.2338 20.0516 12.2574 20.0653C12.2811 20.0789 12.3044 20.0931 12.3274 20.1079C12.3503 20.1227 12.3729 20.1381 12.3951 20.154C12.4172 20.1699 12.439 20.1864 12.4604 20.2034C12.4817 20.2204 12.5027 20.238 12.5231 20.2561C12.5437 20.2741 12.5637 20.2927 12.5832 20.3117C12.6028 20.3308 12.6218 20.3503 12.6404 20.3704C12.659 20.3904 12.677 20.4109 12.6946 20.4318C12.7121 20.4527 12.7292 20.4741 12.7457 20.4958C12.7621 20.5176 12.778 20.5398 12.7934 20.5624C12.8088 20.585 12.8236 20.6079 12.8378 20.6312C12.8521 20.6545 12.8657 20.6782 12.8787 20.7022C12.8902 20.7232 12.9012 20.7444 12.9116 20.766C12.922 20.7875 12.9319 20.8093 12.9412 20.8313C12.9506 20.8533 12.9593 20.8755 12.9676 20.898C12.9758 20.9205 12.9834 20.9431 12.9905 20.9659C12.9976 20.9888 13.0042 21.0118 13.0101 21.035C13.016 21.0581 13.0214 21.0814 13.0262 21.1049C13.031 21.1283 13.0352 21.1519 13.0388 21.1755C13.0424 21.1991 13.0454 21.2228 13.0479 21.2466C13.0503 21.2704 13.0521 21.2943 13.0534 21.3182C13.0547 21.342 13.0553 21.3659 13.0553 21.3899C13.0554 21.4138 13.0549 21.4377 13.0537 21.4616C13.0526 21.4855 13.0509 21.5093 13.0485 21.5331C13.0462 21.5569 13.0433 21.5807 13.0398 21.6043C13.0363 21.628 13.0322 21.6516 13.0275 21.675C13.0228 21.6985 13.0175 21.7218 13.0117 21.745C13.0058 21.7682 12.9994 21.7912 12.9924 21.8141C12.8693 22.2256 12.5806 22.5914 12.1997 22.7923C11.7172 23.0467 10.477 23.0527 9.95443 22.8883C9.48882 22.7418 9.20695 22.4269 8.9883 22.0105C7.46834 22.1083 5.89219 21.9761 4.57408 21.1365C3.90717 20.7117 3.36425 20.1037 3.19056 19.3166C2.7925 19.3155 2.38077 19.3339 2.00374 19.1858C1.9804 19.1766 1.95731 19.1668 1.93445 19.1564C1.91162 19.1461 1.88905 19.1351 1.86674 19.1236C1.84445 19.112 1.82248 19.1 1.80081 19.0874C1.77911 19.0747 1.75774 19.0615 1.73672 19.0478C1.71573 19.0341 1.69508 19.0199 1.67477 19.0051C1.6545 18.9903 1.6346 18.9751 1.61507 18.9593C1.59555 18.9435 1.57643 18.9273 1.55772 18.9105C1.53905 18.8938 1.52078 18.8766 1.50292 18.8589C1.48509 18.8413 1.46773 18.8232 1.45082 18.8046C1.43391 18.7861 1.41748 18.7671 1.40153 18.7477C1.38558 18.7284 1.37013 18.7086 1.3552 18.6884C1.34023 18.6683 1.32579 18.6478 1.31188 18.6269C1.29796 18.606 1.28458 18.5848 1.27172 18.5632C1.25889 18.5416 1.24661 18.5198 1.23488 18.4976C1.22314 18.4754 1.21198 18.4529 1.20141 18.4302C1.19079 18.4074 1.18077 18.3844 1.17135 18.3611C1.09996 18.1877 1.0619 18.0034 1.04567 17.8169C0.998168 17.2694 1.04164 16.6948 1.04174 16.1444C1.0419 15.6037 0.996229 15.0435 1.04858 14.506C1.06644 14.3225 1.10741 14.1372 1.18008 13.9673C1.35663 13.5547 1.68447 13.3049 2.08722 13.1396C2.09339 10.777 1.90429 9.06949 3.32675 6.96139C4.57643 5.1094 6.66585 3.77435 8.86002 3.34961ZM4.75328 18.2736C4.92188 18.2232 5.06179 18.1615 5.14767 17.9988C5.24921 17.8065 5.26125 14.7143 5.18272 14.4636C5.14598 14.3463 5.04771 14.2171 4.93754 14.1603C4.60857 13.9909 2.95099 14.0732 2.50145 14.0921C2.35623 14.1544 2.18131 14.2361 2.12192 14.3963C2.03078 14.6422 2.01349 17.7246 2.11921 17.9439C2.18106 18.0721 2.29311 18.1867 2.42935 18.2333C2.80368 18.3614 4.29277 18.2914 4.75328 18.2736ZM11.6153 21.9268C11.7667 21.8453 11.9329 21.7512 11.9838 21.5737C12.0225 21.4386 12.0112 21.2694 11.9393 21.1472C11.855 21.0037 11.7103 20.9351 11.5534 20.8981C11.1795 20.81 10.7081 20.8735 10.3215 20.8818C10.1623 20.9587 10.0121 21.0534 9.94851 21.2278C9.90228 21.3546 9.90473 21.4898 9.96438 21.6116C10.0376 21.7609 10.1668 21.8589 10.3233 21.9092C10.6731 22.0217 11.2422 21.9408 11.6153 21.9268Z" fill="#212121"/>
<path d="M18.8105 13.0505C18.7995 12.6684 18.6922 11.922 18.9662 11.629C19.0615 11.527 19.1941 11.4886 19.3304 11.4873C19.4603 11.4862 19.5795 11.5262 19.6705 11.6216C19.9551 11.9201 19.8418 12.7329 19.8396 13.1323C19.9426 13.181 20.0491 13.2301 20.1456 13.2908C20.4736 13.4974 20.7435 13.8382 20.8251 14.2196C20.9307 14.7135 20.9317 17.6578 20.8396 18.1243C20.7961 18.3441 20.6792 18.529 20.5591 18.7134C20.416 18.8729 20.2544 19.0207 20.0641 19.1214C19.8862 19.2155 19.696 19.269 19.4972 19.2959C19.0304 19.359 17.1482 19.3583 16.7378 19.2279C16.7133 19.2199 16.689 19.2114 16.6649 19.2022C16.6409 19.193 16.617 19.1832 16.5934 19.1728C16.5698 19.1624 16.5465 19.1515 16.5234 19.1399C16.5004 19.1284 16.4777 19.1162 16.4552 19.1035C16.4328 19.0909 16.4107 19.0777 16.3889 19.0638C16.3672 19.0501 16.3457 19.0357 16.3246 19.0209C16.3036 19.006 16.2829 18.9906 16.2627 18.9748C16.2424 18.9588 16.2225 18.9424 16.203 18.9256C16.1835 18.9087 16.1645 18.8913 16.1459 18.8735C16.1273 18.8556 16.1091 18.8373 16.0915 18.8186C16.0738 18.7998 16.0566 18.7806 16.0399 18.761C16.0231 18.7414 16.0069 18.7214 15.9912 18.701C15.9754 18.6806 15.9602 18.6598 15.9456 18.6386C15.9309 18.6174 15.9167 18.5959 15.9031 18.5739C15.8895 18.5521 15.8765 18.5299 15.8639 18.5073C15.8515 18.4848 15.8395 18.4619 15.8282 18.4388C15.7515 18.285 15.7123 18.1349 15.6934 17.9652C15.6272 17.3732 15.6077 14.5302 15.7632 14.0787C15.9262 13.6057 16.2859 13.3358 16.7174 13.1286C16.7219 12.745 16.6561 12.324 16.7293 11.9475C16.7737 11.719 16.8638 11.6281 17.0524 11.4997C17.1014 11.4946 17.1505 11.4912 17.1997 11.4895C17.3416 11.4855 17.4824 11.5292 17.5851 11.6304C17.8646 11.9058 17.7537 12.6759 17.7527 13.0534L18.8105 13.0505ZM19.3603 18.2756C19.5211 18.2397 19.6708 18.1737 19.7626 18.0292C19.9171 17.7861 19.8983 14.9254 19.798 14.5199C19.7692 14.4031 19.7187 14.2306 19.6102 14.1647C19.3433 14.0026 17.588 14.0695 17.2062 14.0936C17.0516 14.1268 16.8894 14.1749 16.7964 14.3145C16.6587 14.5216 16.6482 17.4988 16.7285 17.8828C16.7522 17.9965 16.864 18.1286 16.9619 18.188C17.2784 18.3801 18.925 18.2867 19.3603 18.2756Z" fill="#212121"/>
</svg>
