<svg width="60" height="60" viewBox="0 0 60 60" fill="none" xmlns="http://www.w3.org/2000/svg">
<g clip-path="url(#clip0_28012_8513)">
<path d="M20.494 12.887C21.9929 12.8386 23.5035 12.8772 25.0041 12.8774L33.4161 12.879L39.3067 12.8754C40.3766 12.8734 41.4789 12.8204 42.5448 12.887C42.8999 12.9091 43.3945 12.9619 43.682 13.1845C43.8311 13.2998 43.8818 13.4321 43.896 13.6185C43.9134 13.8484 43.8603 14.0753 43.7058 14.2515C43.4891 14.4983 43.2381 14.5261 42.9283 14.5445C38.3364 14.6493 33.7197 14.5527 29.1252 14.5519L23.7184 14.5546C22.6924 14.5595 21.6331 14.6165 20.6104 14.5545C20.2847 14.5348 19.9194 14.4803 19.6502 14.2843C19.5051 14.1786 19.3944 14.0333 19.3717 13.8519C19.3426 13.6191 19.4747 13.3565 19.6206 13.1826C19.8507 12.9082 20.1639 12.9113 20.494 12.887Z" fill="#E53935"/>
<path d="M15.688 7.06207C18.0508 7.00122 20.4256 7.049 22.7895 7.04907L36.0679 7.05006L43.6131 7.04792C44.8983 7.04385 46.2635 6.93758 47.5369 7.05523C47.7917 7.07878 48.0165 7.25805 48.2168 7.40767C49.2942 8.21252 50.6004 9.71097 51.5976 10.7072C52.9123 12.0205 54.3376 13.2947 55.5737 14.6754C55.7435 14.8652 56.0227 15.1594 56.0576 15.4171C56.1611 16.1795 56.1056 16.975 56.1034 17.7439L56.0962 21.6227L56.0954 34.9343L56.0962 51.4781L56.1056 56.2113C56.1077 57.1484 56.1721 58.1376 56.0436 59.0656C56.0211 59.2287 55.9782 59.5402 55.8781 59.6661C55.7236 59.8603 55.1733 59.918 54.9316 59.9418C53.7486 60.0584 52.4947 59.9715 51.3025 59.9707L44.2589 59.9669L34.483 59.9696C32.8963 59.9696 31.2595 60.0509 29.6792 59.9624C29.379 59.9455 29.0583 59.887 28.8228 59.687C28.6626 59.5509 28.5996 59.3982 28.5885 59.1889C28.5762 58.9566 28.6413 58.6681 28.808 58.4956C28.9781 58.3194 29.3634 58.3101 29.5969 58.2919C31.0535 58.1788 32.5772 58.266 34.04 58.2665L42.6094 58.271C46.5325 58.2705 50.4783 58.1817 54.3995 58.2769C54.3638 56.9593 54.4057 55.6279 54.4078 54.3089L54.4049 46.6724L54.4 16.3869C52.3528 16.3455 50.3128 16.3608 48.2659 16.3753C47.851 16.3782 47.3409 16.3786 47.0313 16.06C46.8557 15.8793 46.7838 15.6207 46.754 15.3773C46.6677 14.6734 46.7538 13.8833 46.7578 13.1688C46.7644 11.7065 46.7622 10.2442 46.7513 8.78194C45.0842 8.89006 43.263 8.78153 41.5758 8.78078L30.8778 8.77889L21.3851 8.78023C19.8019 8.7811 18.1579 8.88993 16.5839 8.75907C16.5532 11.0744 16.7585 24.0443 16.4347 24.8354C16.3675 24.9995 16.251 25.1084 16.0864 25.1744C15.8748 25.2593 15.5886 25.2677 15.3782 25.1745C15.2037 25.0972 15.0966 24.9173 15.0294 24.7471C14.9372 24.5135 14.9039 24.2431 14.8934 23.9928C14.8567 23.1229 14.9033 22.2404 14.9079 21.3689L14.9056 16.8249C14.9029 14.0183 14.7952 11.1711 14.8989 8.36853C14.9091 8.09418 14.9214 7.75974 15.039 7.50756C15.1684 7.23025 15.4194 7.15397 15.688 7.06207ZM48.4477 10.0274L48.4215 14.6323C49.9559 14.6797 51.4999 14.6016 53.03 14.6811C53.0276 14.6411 53.0343 14.5473 53.0199 14.5143C52.919 14.2824 49.1419 10.5795 48.6604 10.1566C48.5955 10.0995 48.5269 10.0615 48.4477 10.0274Z" fill="#E53935"/>
<path d="M3.99761 26.2528C5.40841 26.1925 6.83324 26.2359 8.24615 26.2368L15.9624 26.2409L22.3838 26.2373C23.554 26.2344 24.7509 26.181 25.9186 26.2438C26.2368 26.2609 26.6499 26.3089 26.9223 26.4814C27.1045 26.5969 27.1488 26.7495 27.1871 26.9527C27.342 27.7736 27.2132 28.7896 27.2147 29.6347L27.2171 36.4621L27.2175 51.464C27.2177 53.9005 27.2714 56.3466 27.2227 58.7818C27.2171 59.0609 27.202 59.37 27.0371 59.6066C26.8631 59.8563 26.5773 59.9109 26.2963 59.9646L11.6711 59.9713L6.71164 59.9702C5.85499 59.9694 4.97826 60.0093 4.1251 59.9539C3.87079 59.9376 3.5928 59.8935 3.37911 59.7464C3.22469 59.6403 3.11933 59.4793 3.09087 59.2943C2.91576 58.1556 3.04727 56.8624 3.0483 55.7063L3.04975 48.2473L3.05132 33.4245L3.054 29.0411C3.05234 28.4857 3.00215 27.9222 3.0199 27.3687C3.02853 27.0996 3.08496 26.7937 3.25145 26.5743C3.44086 26.3248 3.70845 26.2938 3.99761 26.2528ZM5.81272 27.9274C5.4434 27.934 5.07197 27.9486 4.70313 27.9265C4.75745 29.4709 4.71165 31.0299 4.71018 32.5758L4.71056 40.9704C4.71145 46.7239 4.81941 52.4957 4.6974 58.2457C11.3373 58.3334 17.9823 58.2422 24.6231 58.2711C24.9326 58.2714 25.2437 58.265 25.5531 58.2727L25.5571 38.4222C25.5571 34.9346 25.4913 31.4336 25.5748 27.9476C22.7503 27.8438 19.8978 27.9222 17.0699 27.9245C13.3187 27.9276 9.56334 27.8803 5.81272 27.9274Z" fill="#E53935"/>
<path d="M13.3208 52.2449C14.3064 52.2326 16.3127 52.0436 17.1891 52.3516C17.3375 52.4037 17.4559 52.4598 17.5239 52.608C17.8154 53.2427 17.794 56.1725 17.5375 56.8048C17.4413 57.042 17.3028 57.1243 17.0747 57.2259C16.2601 57.3168 13.6702 57.4016 12.9562 57.1246C12.8694 57.0401 12.8252 56.9529 12.789 56.838C12.5775 56.1677 12.4988 53.155 12.8139 52.581C12.9313 52.3673 13.095 52.3066 13.3208 52.2449ZM14.3448 53.8809L14.3124 55.5575C14.873 55.5567 15.4316 55.5581 15.9918 55.5835C15.9735 55.0382 15.9751 54.493 15.9965 53.9477C15.4661 53.9424 14.8625 53.9932 14.3448 53.8809Z" fill="#E53935"/>
<path d="M19.1525 52.2493C20.0672 52.2057 22.3181 52.0565 23.1111 52.3755C23.2511 52.4319 23.3577 52.4958 23.4151 52.6401C23.6694 53.28 23.7051 56.1817 23.4026 56.8276C23.2863 57.076 23.1339 57.1458 22.8843 57.2418C22.0707 57.3017 19.5149 57.4137 18.8778 57.1399C18.7728 57.0947 18.7158 56.9883 18.6762 56.8843C18.4234 56.2199 18.3924 53.1907 18.6836 52.5907C18.7866 52.3787 18.9372 52.3209 19.1525 52.2493ZM20.2126 53.8762L20.1848 55.5592C20.6499 55.5651 21.4256 55.6742 21.849 55.5504C21.8576 55.0133 21.8565 54.474 21.8798 53.9374C21.3383 53.9337 20.7443 53.9778 20.2126 53.8762Z" fill="#E53935"/>
<path d="M13.3598 40.3506C14.2294 40.3185 16.5824 40.1624 17.2867 40.4958C17.4216 40.5594 17.4832 40.6132 17.5332 40.7538C17.776 41.4364 17.8186 44.3381 17.5167 44.9619C17.4014 45.2001 17.2341 45.2664 16.9934 45.3509C16.0221 45.4683 14.8603 45.4413 13.8812 45.3972C13.583 45.3838 13.0593 45.3565 12.8475 45.1271C12.5507 44.3788 12.5351 41.3268 12.8053 40.6185C12.9389 40.4632 13.1705 40.4135 13.3598 40.3506ZM14.3958 42.0262C14.2217 42.4532 14.3092 43.2104 14.2986 43.6833L15.9972 43.6876C15.984 43.1424 15.9843 42.5972 15.998 42.0521C15.4721 42.0487 14.9177 42.0816 14.3958 42.0262Z" fill="#E53935"/>
<path d="M7.42569 52.2478C8.21566 52.2184 10.6544 52.0823 11.2947 52.3333C11.482 52.4069 11.5825 52.5149 11.6616 52.7002C11.9397 53.3517 11.9414 56.1636 11.6586 56.8133C11.553 57.0558 11.415 57.1315 11.1752 57.228C10.4373 57.3005 7.66305 57.4021 7.11384 57.1267C6.98749 57.0636 6.92393 56.8975 6.88407 56.7689C6.67345 56.0904 6.62456 53.1392 6.94426 52.5694C7.06018 52.3627 7.20485 52.3103 7.42569 52.2478ZM8.45909 53.8937L8.43007 55.5495C8.99081 55.558 9.55366 55.5564 10.1138 55.5821L10.1171 53.9407C9.58172 53.9397 8.98453 53.9918 8.45909 53.8937Z" fill="#E53935"/>
<path d="M19.2526 40.3493C20.1813 40.3223 22.3068 40.1571 23.1038 40.4804C23.2421 40.5365 23.3491 40.6023 23.4081 40.744C23.6648 41.3608 23.6959 44.3727 23.405 45.0074C23.3107 45.213 23.0219 45.2945 22.8244 45.3651C22.0666 45.4368 19.563 45.5205 18.9223 45.256C18.802 45.2063 18.7246 45.1539 18.6767 45.0323C18.4552 44.4687 18.4052 41.1718 18.6785 40.6325C18.7631 40.4657 19.0824 40.4082 19.2526 40.3493ZM20.2433 42.0172C20.1542 42.5564 20.1843 43.135 20.1762 43.6813L21.8543 43.6922C21.8749 43.1457 21.8721 42.5982 21.8822 42.0514C21.3463 42.0471 20.7737 42.0843 20.2433 42.0172Z" fill="#E53935"/>
<path d="M13.3115 46.3061C14.2175 46.2585 16.4058 46.1133 17.1817 46.4037C17.3405 46.463 17.443 46.5066 17.5148 46.6705C17.8012 47.3231 17.791 50.2134 17.5432 50.8417C17.4361 51.1131 17.2763 51.1866 17.017 51.3029C16.1754 51.3991 13.6576 51.49 12.9562 51.166C12.8767 51.1294 12.8317 51.0767 12.8029 50.9919C12.572 50.3142 12.506 47.2191 12.8173 46.6267C12.9311 46.4098 13.0889 46.3705 13.3115 46.3061ZM14.3631 47.9584C14.3311 48.5088 14.3118 49.0597 14.3052 49.611C14.8715 49.6142 15.4377 49.6203 16.0039 49.6294C15.9728 49.0808 15.9796 48.5421 15.9976 47.9934C15.4529 47.9779 14.908 47.9662 14.3631 47.9584Z" fill="#E53935"/>
<path d="M7.45502 40.3495C8.33527 40.3166 10.6827 40.1578 11.4031 40.4973C11.5558 40.5692 11.6141 40.6462 11.6673 40.8026C11.9029 41.497 11.9603 44.3621 11.6321 44.9741C11.5016 45.2174 11.3378 45.2743 11.0819 45.3543C10.2449 45.4513 7.77115 45.5329 7.06792 45.2142C6.99663 45.13 6.95162 45.0449 6.91678 44.9404C6.68435 44.2428 6.61387 41.3334 6.92984 40.7088C7.04823 40.4749 7.21401 40.4294 7.45502 40.3495ZM8.45049 42.0427C8.44017 42.587 8.44137 43.1343 8.41546 43.6782C8.98068 43.679 9.5676 43.7108 10.1304 43.6758C10.1084 43.1317 10.1091 42.5929 10.12 42.0488C9.56384 42.0475 9.00648 42.0534 8.45049 42.0427Z" fill="#E53935"/>
<path d="M19.2154 46.3039C20.1421 46.2595 22.295 46.1133 23.0987 46.416C23.2106 46.4582 23.3434 46.5218 23.3927 46.6371C23.6748 47.2959 23.6875 50.2155 23.4167 50.8534C23.299 51.1307 23.1159 51.2098 22.8466 51.3173C21.9651 51.3932 19.5028 51.5012 18.7738 51.1427C18.7247 51.0882 18.6975 51.0398 18.6761 50.97C18.4534 50.2428 18.3524 47.2079 18.7117 46.5887C18.8288 46.3871 19.0025 46.3569 19.2154 46.3039ZM20.2413 47.9557C20.1906 48.5062 20.1904 49.0594 20.1825 49.6118L21.8365 49.6297C21.8906 49.0872 21.8511 48.5383 21.8851 47.9942C21.3374 47.9741 20.7894 47.9612 20.2413 47.9557Z" fill="#E53935"/>
<path d="M7.4843 46.3036C8.40656 46.2496 10.3932 46.1212 11.2124 46.3734C11.3883 46.4274 11.5511 46.4717 11.6347 46.649C11.9435 47.3043 11.9536 50.1429 11.673 50.8293C11.5524 51.1242 11.3704 51.1953 11.0932 51.3145C10.1858 51.3846 7.79875 51.5153 7.03431 51.1509C6.94001 51.0549 6.91415 50.9434 6.88261 50.817C6.7006 50.0868 6.58442 47.172 6.96101 46.5776C7.08752 46.3779 7.26381 46.349 7.4843 46.3036ZM8.47522 47.961C8.44954 48.5087 8.43101 49.0566 8.41962 49.6047C8.97955 49.6095 9.57033 49.6515 10.1271 49.6133C10.1131 49.0705 10.1093 48.5278 10.1158 47.985L8.47522 47.961Z" fill="#E53935"/>
<path d="M7.38262 29.3217C10.1791 29.2198 13.0026 29.3044 15.8026 29.3059C17.9564 29.307 20.222 29.2096 22.3589 29.299C22.61 29.3096 22.89 29.3442 23.1218 29.4437C23.2609 29.5034 23.3682 29.5826 23.422 29.7247C23.6356 30.2886 23.6468 37.9021 23.4248 38.3884C23.3146 38.6299 23.1424 38.705 22.9045 38.7975C22.4389 38.847 21.9587 38.8341 21.4908 38.8352L12.3317 38.8299C10.7633 38.8309 9.06755 38.9571 7.51031 38.79C7.27453 38.7649 7.08658 38.724 6.9135 38.5523C6.67735 37.9278 6.67705 30.1582 6.8729 29.7246C6.98176 29.4835 7.14467 29.415 7.38262 29.3217ZM8.47323 30.9844C8.38971 31.6708 8.42519 32.3865 8.42568 33.0779C8.42659 34.4274 8.45215 35.7808 8.41707 37.1297L17.2271 37.1366C18.7343 37.1361 20.3264 37.0313 21.8245 37.1655C21.9606 36.492 21.8836 35.6846 21.883 34.9934L21.874 31.0015C18.8718 31.0656 15.86 31.0091 12.8567 31.0103C11.5617 31.0109 9.68423 31.1631 8.47323 30.9844Z" fill="#E53935"/>
<path d="M32.9524 29.2319H49.2154C49.4444 29.3889 49.6748 29.5292 49.7301 29.8227C49.8187 30.2923 49.7703 30.8281 49.769 31.3069L49.764 33.8463L49.7655 38.5577C49.7659 39.3659 49.8027 40.1924 49.7586 40.9982L51.6743 41.0054C52.1216 41.0045 52.6194 40.9583 53.0575 41.0395C53.2099 41.0677 53.3591 41.139 53.4692 41.2488C53.5607 41.34 53.6375 41.4535 53.7057 41.5625V42.0066C53.2453 42.7073 52.1766 43.6459 51.5438 44.2753L47.6228 48.1845L43.5364 52.2589C42.9441 52.8493 41.9735 53.9354 41.32 54.3643H40.8654C40.1073 53.8206 39.2547 52.8511 38.582 52.1797L34.4712 48.0813L30.5588 44.1834C29.9716 43.6007 28.9471 42.6956 28.4943 42.0474V41.5575C28.5737 41.4435 28.6566 41.307 28.7584 41.2123C28.8645 41.1135 28.9912 41.063 29.1323 41.0375C29.5348 40.9645 29.987 41.0013 30.396 41.0022C31.07 41.001 31.744 41.0054 32.4179 41.0154L32.4336 33.2733L32.4299 31.1847C32.4282 30.7425 32.392 30.2673 32.4644 29.8309C32.5134 29.5358 32.7249 29.3945 32.9524 29.2319ZM41.1151 52.435C42.3192 51.3109 43.4595 50.1025 44.6272 48.9396L51.0178 42.5767C50.4246 42.6017 48.8293 42.7319 48.3971 42.3479C48.228 42.1979 48.2006 41.9739 48.192 41.7619C48.146 40.6207 48.1895 39.4637 48.1901 38.3204L48.1858 30.8285C47.0026 30.8572 45.8145 30.8351 44.6309 30.8346L38.0928 30.833L35.417 30.836C34.9906 30.8368 34.4569 30.9035 34.0478 30.8037C33.9299 31.2724 34.0101 32.3646 34.0109 32.9165L34.007 39.245C34.0074 39.8481 34.0849 41.5137 33.9677 42.0154C33.9294 42.1795 33.79 42.365 33.6452 42.4555C33.286 42.6799 31.6274 42.6103 31.1678 42.5614L38.358 49.7368L40.126 51.5027C40.4268 51.8029 40.7564 52.207 41.1151 52.435Z" fill="#E53935"/>
<path d="M44.916 33.9519C45.0562 33.941 45.194 33.953 45.3253 34.0063C45.5198 34.0851 45.6886 34.2424 45.7689 34.4368C45.8492 34.631 45.8386 34.8603 45.7534 35.0516C45.6935 35.1859 45.5487 35.3239 45.4481 35.4291C43.9894 36.9557 42.4503 38.4202 40.9549 39.9118L38.8581 42.0024C38.4803 42.3789 38.1104 42.7762 37.7129 43.1316C37.5842 43.2466 37.4549 43.3113 37.2952 43.3734C37.1055 43.3981 36.9194 43.3648 36.7539 43.2662C36.7318 43.253 36.7105 43.2387 36.6899 43.2233C36.6693 43.208 36.6495 43.1917 36.6305 43.1743C36.6115 43.1571 36.5934 43.1389 36.5762 43.1198C36.559 43.1008 36.5427 43.0809 36.5275 43.0602C36.5123 43.0395 36.4981 43.0182 36.485 42.9961C36.4718 42.9741 36.4598 42.9514 36.449 42.9282C36.4381 42.905 36.4284 42.8812 36.4198 42.857C36.4113 42.8328 36.404 42.8083 36.3979 42.7834C36.3445 42.5668 36.3881 42.3394 36.5052 42.1507C36.7395 41.7734 37.2448 41.3606 37.5667 41.04L39.7525 38.8658L42.8244 35.8011C43.3406 35.2857 43.8449 34.7329 44.3901 34.2493C44.5634 34.0955 44.6887 34.0076 44.916 33.9519Z" fill="#E53935"/>
<path d="M37.688 33.1736C37.7264 33.1694 37.7648 33.1662 37.8034 33.1639C37.8419 33.1616 37.8805 33.1602 37.9191 33.1598C37.9577 33.1594 37.9963 33.1599 38.0349 33.1614C38.0735 33.1628 38.112 33.1653 38.1504 33.1686C38.1889 33.172 38.2273 33.1762 38.2655 33.1815C38.3038 33.1867 38.3419 33.1928 38.3798 33.1999C38.4178 33.207 38.4555 33.215 38.4931 33.2239C38.5306 33.2329 38.568 33.2427 38.605 33.2535C38.6421 33.2642 38.6789 33.2759 38.7154 33.2884C38.7519 33.301 38.788 33.3144 38.8239 33.3287C38.8597 33.343 38.8952 33.3582 38.9303 33.3743C38.9654 33.3903 39.0001 33.4072 39.0343 33.4249C39.0686 33.4427 39.1024 33.4613 39.1357 33.4806C39.1691 33.5 39.2019 33.5202 39.2343 33.5412C39.2666 33.5622 39.2985 33.584 39.3298 33.6066C39.361 33.6291 39.3918 33.6524 39.4219 33.6765C39.452 33.7005 39.4816 33.7253 39.5105 33.7508C39.5394 33.7763 39.5677 33.8025 39.5953 33.8294C39.623 33.8563 39.6499 33.8838 39.6762 33.912C39.7025 33.9402 39.728 33.969 39.7529 33.9984C39.7778 34.0279 39.8019 34.0579 39.8253 34.0885C39.8487 34.1192 39.8713 34.1504 39.8931 34.1821C39.915 34.2138 39.9361 34.2461 39.9563 34.2788C39.9766 34.3116 39.9961 34.3448 40.0147 34.3785C40.0333 34.4122 40.0511 34.4464 40.0681 34.4809C40.085 34.5155 40.1011 34.5505 40.1164 34.5859C40.1316 34.6212 40.146 34.6569 40.1595 34.693C40.1729 34.7291 40.1855 34.7654 40.1972 34.8021C40.2089 34.8388 40.2197 34.8757 40.2296 34.913C40.2395 34.9502 40.2484 34.9876 40.2564 35.0252C40.2645 35.0629 40.2716 35.1007 40.2778 35.1387C40.284 35.1767 40.2892 35.2148 40.2935 35.253C40.2978 35.2913 40.3012 35.3296 40.3036 35.368C40.306 35.4064 40.3075 35.4449 40.308 35.4834C40.3085 35.5219 40.3081 35.5603 40.3068 35.5988C40.3054 35.6373 40.3031 35.6757 40.2998 35.714C40.2966 35.7524 40.2924 35.7906 40.2873 35.8288C40.2821 35.8669 40.2761 35.9049 40.2691 35.9428C40.2621 35.9806 40.2542 36.0183 40.2453 36.0557C40.2365 36.0932 40.2267 36.1304 40.216 36.1674C40.2053 36.2044 40.1937 36.2411 40.1813 36.2775C40.1688 36.314 40.1554 36.35 40.1411 36.3858C40.1269 36.4216 40.1118 36.457 40.0958 36.492C40.0798 36.527 40.0629 36.5617 40.0452 36.5959C40.0275 36.6301 40.009 36.6638 39.9896 36.6971C39.9703 36.7304 39.9501 36.7632 39.9291 36.7955C39.9081 36.8278 39.8864 36.8596 39.8639 36.8909C39.8413 36.9221 39.818 36.9528 39.794 36.9829C39.7699 37.013 39.7452 37.0426 39.7197 37.0715C39.6942 37.1004 39.668 37.1286 39.6411 37.1562C39.6142 37.1839 39.5867 37.2108 39.5585 37.2371C39.5303 37.2634 39.5014 37.289 39.4719 37.3138C39.4425 37.3387 39.4124 37.3628 39.3818 37.3862C39.3511 37.4096 39.3199 37.4323 39.2881 37.4542C39.2564 37.476 39.2241 37.4971 39.1913 37.5174C39.1585 37.5377 39.1252 37.5572 39.0914 37.5759C39.0577 37.5945 39.0235 37.6124 38.9888 37.6294C38.9542 37.6464 38.9192 37.6625 38.8837 37.6778C38.8483 37.6931 38.8125 37.7075 38.7764 37.7211C38.7402 37.7346 38.7038 37.7473 38.667 37.759C38.6303 37.7708 38.5932 37.7816 38.5559 37.7916C38.5186 37.8015 38.4811 37.8106 38.4434 37.8187C38.4056 37.8268 38.3677 37.834 38.3296 37.8403C38.2915 37.8466 38.2533 37.8519 38.215 37.8563C38.1765 37.8607 38.1379 37.8642 38.0992 37.8667C38.0605 37.8692 38.0218 37.8708 37.9831 37.8714C37.9443 37.872 37.9056 37.8717 37.8669 37.8704C37.8282 37.8692 37.7895 37.867 37.7509 37.8638C37.7122 37.8606 37.6737 37.8565 37.6353 37.8514C37.5969 37.8464 37.5586 37.8404 37.5205 37.8334C37.4824 37.8265 37.4445 37.8187 37.4067 37.8099C37.369 37.8011 37.3315 37.7914 37.2943 37.7807C37.257 37.7701 37.22 37.7586 37.1834 37.7461C37.1467 37.7337 37.1103 37.7203 37.0743 37.7061C37.0383 37.6919 37.0026 37.6768 36.9673 37.6608C36.9321 37.6448 36.8972 37.628 36.8627 37.6103C36.8283 37.5926 36.7943 37.5741 36.7608 37.5547C36.7272 37.5354 36.6942 37.5152 36.6616 37.4943C36.6291 37.4733 36.5971 37.4515 36.5656 37.429C36.5342 37.4064 36.5033 37.3831 36.4729 37.3591C36.4426 37.335 36.4129 37.3103 36.3838 37.2847C36.3547 37.2592 36.3263 37.233 36.2985 37.2061C36.2707 37.1792 36.2436 37.1516 36.2171 37.1234C36.1907 37.0952 36.1649 37.0663 36.1399 37.0368C36.1149 37.0073 36.0906 36.9772 36.0671 36.9465C36.0436 36.9158 36.0208 36.8846 35.9988 36.8528C35.9768 36.821 35.9556 36.7886 35.9352 36.7558C35.9148 36.7229 35.8953 36.6896 35.8765 36.6558C35.8578 36.622 35.8399 36.5878 35.8228 36.5531C35.8057 36.5184 35.7895 36.4833 35.7742 36.4479C35.7589 36.4124 35.7444 36.3765 35.7309 36.3404C35.7173 36.3042 35.7046 36.2677 35.6929 36.2309C35.6811 36.1941 35.6703 36.157 35.6603 36.1197C35.6504 36.0823 35.6414 36.0448 35.6333 36.007C35.6252 35.9692 35.6181 35.9313 35.6119 35.8931C35.6057 35.855 35.6004 35.8167 35.5961 35.7784C35.5918 35.74 35.5884 35.7015 35.586 35.6629C35.5836 35.6244 35.5821 35.5858 35.5816 35.5472C35.5811 35.5086 35.5815 35.4699 35.5829 35.4313C35.5843 35.3927 35.5866 35.3542 35.5899 35.3157C35.5932 35.2772 35.5974 35.2388 35.6026 35.2005C35.6078 35.1623 35.6139 35.1241 35.621 35.0862C35.628 35.0482 35.636 35.0104 35.645 34.9728C35.6539 34.9352 35.6637 34.8979 35.6745 34.8608C35.6853 34.8237 35.697 34.7868 35.7096 34.7503C35.7221 34.7138 35.7356 34.6776 35.75 34.6417C35.7644 34.6058 35.7796 34.5703 35.7958 34.5352C35.8119 34.5001 35.8289 34.4654 35.8467 34.4311C35.8645 34.3968 35.8832 34.3629 35.9027 34.3296C35.9222 34.2962 35.9426 34.2633 35.9637 34.2309C35.9848 34.1986 36.0067 34.1667 36.0294 34.1354C36.0521 34.1041 36.0756 34.0734 36.0998 34.0432C36.124 34.0131 36.149 33.9835 36.1746 33.9546C36.2003 33.9257 36.2267 33.8974 36.2538 33.8697C36.2808 33.8421 36.3086 33.8151 36.337 33.7889C36.3654 33.7626 36.3944 33.737 36.4241 33.7122C36.4537 33.6873 36.484 33.6632 36.5148 33.6398C36.5457 33.6165 36.5771 33.5939 36.6091 33.572C36.641 33.5502 36.6735 33.5292 36.7065 33.5089C36.7395 33.4887 36.773 33.4693 36.807 33.4507C36.8409 33.4321 36.8753 33.4143 36.9102 33.3974C36.945 33.3805 36.9803 33.3644 37.0159 33.3493C37.0515 33.3341 37.0875 33.3198 37.1238 33.3064C37.1602 33.293 37.1968 33.2804 37.2338 33.2688C37.2707 33.2572 37.3079 33.2465 37.3454 33.2367C37.3829 33.2269 37.4206 33.218 37.4585 33.2101C37.4965 33.2021 37.5345 33.1951 37.5728 33.189C37.6111 33.183 37.6495 33.1778 37.688 33.1736ZM38.1829 36.2576C38.1993 36.2525 38.2154 36.2468 38.2314 36.2405C38.2474 36.2343 38.2632 36.2276 38.2787 36.2203C38.2942 36.2131 38.3095 36.2053 38.3245 36.1971C38.3395 36.1888 38.3543 36.1801 38.3687 36.1708C38.3832 36.1616 38.3973 36.1519 38.4111 36.1418C38.4249 36.1316 38.4384 36.121 38.4515 36.11C38.4646 36.0989 38.4773 36.0875 38.4896 36.0756C38.502 36.0637 38.5139 36.0515 38.5255 36.0388C38.537 36.0262 38.5481 36.0131 38.5588 35.9997C38.5694 35.9863 38.5797 35.9726 38.5894 35.9586C38.5992 35.9445 38.6085 35.9301 38.6173 35.9155C38.6261 35.9008 38.6344 35.8858 38.6423 35.8706C38.6501 35.8554 38.6574 35.84 38.6642 35.8243C38.671 35.8086 38.6773 35.7927 38.6831 35.7766C38.6888 35.7604 38.694 35.7441 38.6987 35.7277C38.7034 35.7112 38.7075 35.6947 38.7111 35.6779C38.7147 35.6612 38.7177 35.6444 38.7202 35.6275C38.7226 35.6105 38.7246 35.5935 38.7259 35.5765C38.7272 35.5595 38.728 35.5424 38.7282 35.5253C38.7285 35.5082 38.7281 35.4911 38.7272 35.474C38.7263 35.4569 38.7248 35.4399 38.7228 35.4229C38.7207 35.4059 38.7181 35.389 38.715 35.3722C38.7118 35.3554 38.7081 35.3387 38.7039 35.3222C38.6996 35.3056 38.6948 35.2892 38.6895 35.273C38.6841 35.2567 38.6782 35.2406 38.6718 35.2248C38.6654 35.2089 38.6585 35.1933 38.6511 35.1779C38.6436 35.1624 38.6357 35.1473 38.6272 35.1324C38.6188 35.1175 38.6099 35.1029 38.6005 35.0886C38.5911 35.0743 38.5812 35.0603 38.5709 35.0467C38.5605 35.033 38.5498 35.0197 38.5386 35.0068C38.5274 34.9938 38.5157 34.9813 38.5037 34.9691C38.4916 34.9569 38.4792 34.9451 38.4664 34.9338C38.4536 34.9224 38.4404 34.9115 38.4269 34.901C38.4133 34.8905 38.3994 34.8804 38.3852 34.8708C38.371 34.8613 38.3565 34.8522 38.3417 34.8435C38.3269 34.8349 38.3118 34.8267 38.2965 34.8191C38.2811 34.8114 38.2656 34.8043 38.2497 34.7977C38.2339 34.7911 38.2179 34.785 38.2017 34.7794C38.1855 34.7738 38.1691 34.7688 38.1525 34.7643C38.136 34.7598 38.1193 34.7559 38.1025 34.7525C38.0857 34.7491 38.0688 34.7463 38.0518 34.744C38.0348 34.7417 38.0177 34.74 38.0006 34.7388C37.9835 34.7376 37.9663 34.737 37.9492 34.737C37.932 34.7369 37.9149 34.7375 37.8978 34.7386C37.8806 34.7396 37.8636 34.7413 37.8466 34.7435C37.8295 34.7457 37.8126 34.7485 37.7958 34.7518C37.779 34.7551 37.7623 34.759 37.7457 34.7634C37.7291 34.7678 37.7127 34.7728 37.6965 34.7783C37.6844 34.7823 37.6725 34.7867 37.6607 34.7914C37.6489 34.796 37.6372 34.8009 37.6257 34.8061C37.6141 34.8114 37.6027 34.8169 37.5914 34.8226C37.5801 34.8284 37.5689 34.8344 37.5579 34.8407C37.5469 34.8471 37.5361 34.8536 37.5254 34.8605C37.5147 34.8673 37.5042 34.8744 37.4939 34.8818C37.4835 34.8891 37.4734 34.8967 37.4634 34.9045C37.4535 34.9124 37.4437 34.9205 37.4341 34.9288C37.4246 34.9371 37.4152 34.9457 37.4061 34.9544C37.3969 34.9632 37.388 34.9722 37.3793 34.9814C37.3706 34.9906 37.3621 35 37.3538 35.0097C37.3456 35.0193 37.3376 35.0291 37.3298 35.0391C37.322 35.0491 37.3145 35.0593 37.3073 35.0697C37.3 35.08 37.293 35.0906 37.2862 35.1013C37.2795 35.112 37.273 35.1229 37.2668 35.1339C37.2605 35.145 37.2546 35.1561 37.2489 35.1674C37.2432 35.1788 37.2378 35.1902 37.2327 35.2018C37.2276 35.2134 37.2228 35.2251 37.2182 35.2369C37.2137 35.2487 37.2094 35.2606 37.2055 35.2727C37.2015 35.2847 37.1979 35.2968 37.1945 35.309C37.1911 35.3212 37.1881 35.3335 37.1853 35.3458C37.1825 35.3582 37.1801 35.3706 37.1779 35.3831C37.1758 35.3955 37.1739 35.408 37.1724 35.4206C37.1708 35.4332 37.1696 35.4458 37.1686 35.4584C37.1677 35.471 37.1671 35.4836 37.1668 35.4963C37.1665 35.5089 37.1665 35.5216 37.1668 35.5343C37.1671 35.5469 37.1677 35.5595 37.1686 35.5722C37.1696 35.5848 37.1708 35.5974 37.1723 35.6099C37.1739 35.6225 37.1757 35.635 37.1779 35.6475C37.18 35.66 37.1825 35.6724 37.1852 35.6847C37.188 35.6971 37.1911 35.7093 37.1944 35.7216C37.1978 35.7338 37.2014 35.7459 37.2054 35.7579C37.2094 35.7699 37.2136 35.7818 37.2181 35.7937C37.2227 35.8055 37.2275 35.8172 37.2326 35.8288C37.2377 35.8404 37.2431 35.8518 37.2488 35.8631C37.2544 35.8744 37.2604 35.8856 37.2666 35.8967C37.2728 35.9077 37.2793 35.9186 37.2861 35.9293C37.2928 35.94 37.2998 35.9506 37.3071 35.9609C37.3143 35.9713 37.3219 35.9815 37.3296 35.9915C37.3374 36.0015 37.3454 36.0113 37.3536 36.021C37.3619 36.0306 37.3704 36.04 37.3791 36.0492C37.3878 36.0584 37.3967 36.0674 37.4058 36.0762C37.415 36.085 37.4243 36.0935 37.4339 36.1018C37.4435 36.1102 37.4532 36.1183 37.4632 36.1261C37.4731 36.1339 37.4833 36.1415 37.4936 36.1489C37.504 36.1563 37.5145 36.1634 37.5251 36.1702C37.5358 36.177 37.5467 36.1836 37.5577 36.1899C37.5687 36.1963 37.5798 36.2023 37.5911 36.2081C37.6024 36.2139 37.6138 36.2194 37.6254 36.2246C37.637 36.2298 37.6486 36.2347 37.6604 36.2394C37.6722 36.244 37.6842 36.2484 37.6962 36.2525C37.7082 36.2565 37.7203 36.2603 37.7325 36.2638C37.7447 36.2673 37.757 36.2705 37.7694 36.2733C37.7817 36.2762 37.7942 36.2788 37.8066 36.2811C37.8191 36.2834 37.8317 36.2854 37.8442 36.287C37.8568 36.2887 37.8694 36.2901 37.8821 36.2911C37.8947 36.2922 37.9074 36.2929 37.9201 36.2934C37.9328 36.2938 37.9455 36.294 37.9582 36.2938C37.9709 36.2936 37.9835 36.2931 37.9962 36.2923C38.0089 36.2915 38.0215 36.2904 38.0341 36.289C38.0468 36.2876 38.0593 36.2859 38.0719 36.2839C38.0844 36.2819 38.0969 36.2796 38.1093 36.2769C38.1217 36.2743 38.1341 36.2714 38.1463 36.2682C38.1586 36.265 38.1708 36.2614 38.1829 36.2576Z" fill="#E53935"/>
<path d="M43.993 39.4566C44.0314 39.4525 44.0699 39.4493 44.1084 39.447C44.1469 39.4447 44.1855 39.4434 44.2241 39.443C44.2627 39.4426 44.3012 39.4432 44.3398 39.4446C44.3784 39.4461 44.4169 39.4486 44.4553 39.452C44.4938 39.4553 44.5321 39.4597 44.5704 39.4649C44.6086 39.4701 44.6467 39.4763 44.6846 39.4834C44.7226 39.4906 44.7603 39.4986 44.7978 39.5075C44.8353 39.5165 44.8727 39.5263 44.9097 39.5371C44.9468 39.5479 44.9835 39.5596 45.02 39.5721C45.0565 39.5847 45.0926 39.5982 45.1284 39.6125C45.1642 39.6268 45.1997 39.642 45.2348 39.6581C45.2699 39.6742 45.3045 39.6911 45.3388 39.7088C45.373 39.7266 45.4068 39.7452 45.4402 39.7646C45.4734 39.784 45.5063 39.8042 45.5386 39.8252C45.571 39.8462 45.6028 39.868 45.634 39.8906C45.6653 39.9132 45.696 39.9365 45.7261 39.9605C45.7561 39.9846 45.7856 40.0094 45.8145 40.0349C45.8435 40.0604 45.8717 40.0866 45.8994 40.1135C45.9269 40.1404 45.9539 40.1679 45.9802 40.1961C46.0064 40.2243 46.032 40.2532 46.0568 40.2826C46.0816 40.312 46.1057 40.3421 46.1291 40.3727C46.1524 40.4033 46.175 40.4345 46.1969 40.4662C46.2187 40.498 46.2398 40.5302 46.26 40.563C46.2803 40.5957 46.2997 40.629 46.3183 40.6627C46.3369 40.6964 46.3547 40.7305 46.3716 40.7651C46.3886 40.7997 46.4047 40.8346 46.4199 40.87C46.4351 40.9054 46.4494 40.9411 46.4629 40.9771C46.4763 41.0132 46.4889 41.0496 46.5005 41.0862C46.5122 41.1229 46.523 41.1598 46.5328 41.197C46.5427 41.2342 46.5516 41.2717 46.5597 41.3093C46.5677 41.3469 46.5748 41.3847 46.581 41.4227C46.5871 41.4607 46.5923 41.4988 46.5966 41.5371C46.6009 41.5753 46.6043 41.6136 46.6067 41.652C46.609 41.6904 46.6105 41.7289 46.611 41.7673C46.6116 41.8058 46.6111 41.8443 46.6097 41.8828C46.6084 41.9212 46.6061 41.9596 46.6028 41.9979C46.5995 42.0363 46.5953 42.0745 46.5902 42.1126C46.585 42.1507 46.579 42.1887 46.5719 42.2266C46.5649 42.2645 46.557 42.3021 46.5482 42.3396C46.5393 42.377 46.5295 42.4142 46.5188 42.4511C46.5082 42.4881 46.4966 42.5248 46.484 42.5612C46.4716 42.5977 46.4582 42.6337 46.444 42.6694C46.4297 42.7052 46.4145 42.7406 46.3986 42.7756C46.3825 42.8106 46.3657 42.8452 46.348 42.8794C46.3303 42.9136 46.3118 42.9473 46.2924 42.9807C46.273 43.0139 46.2528 43.0467 46.2319 43.079C46.2109 43.1113 46.1891 43.1431 46.1666 43.1743C46.1441 43.2056 46.1208 43.2362 46.0968 43.2663C46.0727 43.2964 46.0479 43.3259 46.0224 43.3548C45.997 43.3837 45.9708 43.412 45.9439 43.4396C45.917 43.4672 45.8894 43.4941 45.8612 43.5204C45.833 43.5466 45.8042 43.5722 45.7747 43.5971C45.7453 43.6219 45.7153 43.6461 45.6846 43.6694C45.6539 43.6928 45.6227 43.7154 45.5909 43.7373C45.5592 43.7592 45.5269 43.7802 45.4941 43.8005C45.4613 43.8209 45.4281 43.8403 45.3943 43.8589C45.3606 43.8776 45.3264 43.8955 45.2918 43.9125C45.2571 43.9295 45.222 43.9456 45.1867 43.9608C45.1512 43.9762 45.1154 43.9906 45.0793 44.0041C45.0432 44.0176 45.0068 44.0303 44.97 44.042C44.9332 44.0538 44.8962 44.0647 44.8589 44.0746C44.8217 44.0845 44.7842 44.0936 44.7465 44.1017C44.7087 44.1098 44.6708 44.117 44.6326 44.1233C44.5946 44.1296 44.5564 44.1349 44.5181 44.1393C44.4796 44.1437 44.441 44.1472 44.4023 44.1497C44.3636 44.1522 44.3248 44.1538 44.2861 44.1544C44.2474 44.155 44.2086 44.1547 44.1699 44.1535C44.1311 44.1521 44.0925 44.1499 44.0539 44.1468C44.0153 44.1436 43.9767 44.1395 43.9383 44.1344C43.8999 44.1294 43.8616 44.1234 43.8235 44.1164C43.7853 44.1095 43.7474 44.1016 43.7097 44.0928C43.6719 44.084 43.6344 44.0743 43.5972 44.0636C43.5599 44.053 43.5229 44.0414 43.4863 44.029C43.4496 44.0166 43.4132 44.0032 43.3771 43.989C43.3411 43.9748 43.3055 43.9596 43.2702 43.9436C43.2349 43.9276 43.2 43.9108 43.1656 43.8931C43.1311 43.8754 43.0971 43.8569 43.0636 43.8376C43.0301 43.8182 42.997 43.798 42.9644 43.777C42.9319 43.7561 42.8999 43.7343 42.8685 43.7118C42.837 43.6892 42.806 43.6658 42.7757 43.6418C42.7454 43.6178 42.7157 43.593 42.6866 43.5674C42.6575 43.5419 42.629 43.5156 42.6012 43.4887C42.5735 43.4618 42.5464 43.4342 42.5199 43.4059C42.4935 43.3777 42.4677 43.3488 42.4428 43.3193C42.4177 43.2899 42.3934 43.2597 42.3699 43.229C42.3464 43.1983 42.3236 43.1671 42.3016 43.1353C42.2797 43.1034 42.2585 43.0711 42.2381 43.0382C42.2177 43.0054 42.1981 42.9721 42.1793 42.9382C42.1606 42.9044 42.1427 42.8701 42.1257 42.8354C42.1087 42.8007 42.0925 42.7656 42.0771 42.7301C42.0618 42.6947 42.0474 42.6589 42.0338 42.6227C42.0202 42.5865 42.0076 42.55 41.9959 42.5131C41.9841 42.4763 41.9733 42.4393 41.9634 42.4019C41.9535 42.3645 41.9445 42.327 41.9364 42.2892C41.9283 42.2514 41.9212 42.2134 41.915 42.1753C41.9088 42.1371 41.9035 42.0988 41.8992 42.0605C41.8949 42.0221 41.8916 41.9836 41.8891 41.945C41.8868 41.9064 41.8854 41.8679 41.8848 41.8292C41.8843 41.7906 41.8848 41.752 41.8861 41.7134C41.8875 41.6748 41.8899 41.6362 41.8932 41.5977C41.8965 41.5592 41.9008 41.5208 41.906 41.4825C41.9112 41.4443 41.9174 41.4061 41.9244 41.3681C41.9315 41.3302 41.9395 41.2924 41.9485 41.2548C41.9574 41.2172 41.9673 41.1798 41.9781 41.1427C41.9889 41.1056 42.0006 41.0688 42.0132 41.0323C42.0258 40.9957 42.0393 40.9595 42.0536 40.9237C42.0681 40.8878 42.0834 40.8523 42.0995 40.8172C42.1157 40.782 42.1327 40.7473 42.1506 40.713C42.1684 40.6788 42.1871 40.6449 42.2067 40.6116C42.2262 40.5782 42.2465 40.5453 42.2677 40.5129C42.2888 40.4806 42.3107 40.4487 42.3335 40.4174C42.3562 40.3861 42.3797 40.3554 42.404 40.3253C42.4282 40.2951 42.4531 40.2656 42.4788 40.2367C42.5045 40.2077 42.5309 40.1795 42.558 40.1518C42.5851 40.1242 42.6129 40.0973 42.6413 40.071C42.6697 40.0447 42.6988 40.0192 42.7284 39.9943C42.7581 39.9695 42.7884 39.9454 42.8193 39.9221C42.8502 39.8987 42.8816 39.8761 42.9136 39.8543C42.9456 39.8325 42.9781 39.8115 43.0112 39.7912C43.0442 39.771 43.0777 39.7516 43.1116 39.7331C43.1456 39.7145 43.18 39.6968 43.2149 39.6799C43.2498 39.663 43.285 39.6469 43.3206 39.6318C43.3563 39.6166 43.3923 39.6024 43.4287 39.589C43.465 39.5756 43.5016 39.5631 43.5386 39.5515C43.5756 39.5399 43.6128 39.5292 43.6504 39.5194C43.6879 39.5097 43.7256 39.5008 43.7635 39.4929C43.8014 39.485 43.8395 39.478 43.8778 39.4719C43.916 39.4659 43.9545 39.4608 43.993 39.4566ZM44.486 42.5405C44.5024 42.5353 44.5186 42.5296 44.5346 42.5234C44.5505 42.5172 44.5663 42.5105 44.5818 42.5032C44.5974 42.496 44.6126 42.4882 44.6276 42.4799C44.6426 42.4717 44.6574 42.463 44.6718 42.4537C44.6863 42.4444 44.7004 42.4348 44.7142 42.4246C44.728 42.4145 44.7414 42.4039 44.7545 42.3928C44.7676 42.3818 44.7804 42.3703 44.7927 42.3585C44.8051 42.3466 44.817 42.3344 44.8285 42.3217C44.8401 42.3091 44.8513 42.296 44.8619 42.2826C44.8726 42.2692 44.8828 42.2555 44.8926 42.2414C44.9023 42.2273 44.9116 42.213 44.9204 42.1983C44.9293 42.1837 44.9376 42.1687 44.9454 42.1535C44.9532 42.1383 44.9605 42.1228 44.9673 42.1071C44.9741 42.0914 44.9804 42.0755 44.9862 42.0595C44.9919 42.0433 44.9972 42.027 45.0019 42.0106C45.0065 41.9942 45.0106 41.9776 45.0142 41.9608C45.0178 41.9441 45.0209 41.9272 45.0233 41.9103C45.0257 41.8934 45.0276 41.8764 45.029 41.8594C45.0303 41.8423 45.0311 41.8252 45.0314 41.8081C45.0316 41.7911 45.0313 41.774 45.0303 41.7569C45.0294 41.7398 45.028 41.7228 45.0259 41.7058C45.0238 41.6889 45.0212 41.672 45.0181 41.6552C45.0149 41.6383 45.0112 41.6217 45.0069 41.6051C45.0027 41.5885 44.9979 41.5721 44.9925 41.5559C44.9872 41.5396 44.9814 41.5236 44.9749 41.5077C44.9685 41.4918 44.9616 41.4762 44.9542 41.4608C44.9467 41.4454 44.9388 41.4302 44.9304 41.4154C44.9219 41.4005 44.9129 41.3859 44.9035 41.3716C44.8942 41.3573 44.8844 41.3433 44.874 41.3296C44.8637 41.316 44.8529 41.3027 44.8416 41.2897C44.8305 41.2768 44.8189 41.2642 44.8068 41.2521C44.7948 41.2399 44.7824 41.2281 44.7695 41.2167C44.7567 41.2054 44.7435 41.1944 44.73 41.1839C44.7164 41.1734 44.7026 41.1634 44.6884 41.1538C44.6742 41.1442 44.6597 41.1351 44.6449 41.1265C44.6301 41.1178 44.615 41.1097 44.5996 41.102C44.5842 41.0944 44.5686 41.0873 44.5528 41.0806C44.537 41.074 44.521 41.0679 44.5048 41.0623C44.4886 41.0568 44.4722 41.0517 44.4557 41.0473C44.4391 41.0428 44.4224 41.0388 44.4056 41.0354C44.3888 41.032 44.3719 41.0292 44.3549 41.0269C44.3379 41.0246 44.3208 41.0229 44.3038 41.0217C44.2866 41.0206 44.2695 41.02 44.2523 41.0199C44.2352 41.0199 44.218 41.0204 44.2009 41.0215C44.1837 41.0226 44.1667 41.0242 44.1497 41.0264C44.1327 41.0286 44.1157 41.0314 44.0989 41.0347C44.0821 41.0381 44.0654 41.0419 44.0489 41.0463C44.0322 41.0508 44.0158 41.0557 43.9996 41.0612C43.9876 41.0653 43.9756 41.0696 43.9638 41.0743C43.952 41.0789 43.9403 41.0839 43.9287 41.0891C43.9172 41.0943 43.9058 41.0998 43.8944 41.1055C43.8832 41.1113 43.8721 41.1174 43.861 41.1237C43.85 41.13 43.8392 41.1366 43.8285 41.1434C43.8178 41.1502 43.8073 41.1573 43.797 41.1647C43.7867 41.172 43.7765 41.1796 43.7665 41.1875C43.7565 41.1953 43.7468 41.2034 43.7373 41.2117C43.7277 41.22 43.7183 41.2286 43.7091 41.2374C43.7 41.2461 43.691 41.2551 43.6823 41.2643C43.6736 41.2735 43.6652 41.283 43.657 41.2926C43.6486 41.3022 43.6406 41.312 43.6329 41.322C43.6251 41.332 43.6176 41.3422 43.6103 41.3526C43.603 41.363 43.596 41.3735 43.5893 41.3842C43.5825 41.3949 43.5761 41.4058 43.5699 41.4168C43.5636 41.4279 43.5577 41.4391 43.552 41.4504C43.5463 41.4617 43.5409 41.4731 43.5358 41.4847C43.5307 41.4963 43.5259 41.508 43.5213 41.5198C43.5168 41.5317 43.5125 41.5436 43.5086 41.5556C43.5046 41.5676 43.5009 41.5797 43.4975 41.5919C43.4941 41.6041 43.4911 41.6164 43.4884 41.6288C43.4856 41.6411 43.4832 41.6535 43.481 41.666C43.4788 41.6785 43.4769 41.691 43.4754 41.7036C43.4738 41.7161 43.4726 41.7287 43.4717 41.7413C43.4707 41.754 43.4701 41.7666 43.4699 41.7792C43.4696 41.7919 43.4696 41.8045 43.4699 41.8172C43.4701 41.8298 43.4707 41.8425 43.4717 41.8551C43.4726 41.8677 43.4738 41.8803 43.4754 41.8928C43.4769 41.9054 43.4788 41.9179 43.481 41.9304C43.4831 41.9429 43.4855 41.9553 43.4883 41.9677C43.4911 41.98 43.4941 41.9923 43.4975 42.0045C43.5009 42.0167 43.5045 42.0288 43.5085 42.0409C43.5124 42.0529 43.5167 42.0649 43.5212 42.0767C43.5257 42.0885 43.5306 42.1002 43.5357 42.1117C43.5408 42.1233 43.5462 42.1347 43.5518 42.146C43.5575 42.1574 43.5635 42.1686 43.5697 42.1796C43.5759 42.1907 43.5824 42.2015 43.5891 42.2123C43.5959 42.223 43.6029 42.2335 43.6102 42.2439C43.6174 42.2543 43.6249 42.2645 43.6328 42.2745C43.6405 42.2845 43.6485 42.2943 43.6567 42.3039C43.6649 42.3135 43.6734 42.3229 43.6822 42.3321C43.6908 42.3414 43.6997 42.3504 43.7089 42.3592C43.7181 42.368 43.7274 42.3765 43.737 42.3848C43.7466 42.3931 43.7563 42.4012 43.7662 42.4091C43.7762 42.4169 43.7864 42.4245 43.7968 42.4318C43.8071 42.4392 43.8176 42.4463 43.8283 42.4532C43.8389 42.46 43.8498 42.4666 43.8608 42.4729C43.8718 42.4792 43.8829 42.4852 43.8942 42.491C43.9055 42.4968 43.917 42.5023 43.9285 42.5076C43.9401 42.5128 43.9518 42.5177 43.9635 42.5223C43.9754 42.527 43.9873 42.5313 43.9993 42.5353C44.0113 42.5394 44.0234 42.5433 44.0356 42.5468C44.0478 42.5502 44.0601 42.5534 44.0724 42.5563C44.0848 42.5592 44.0972 42.5617 44.1098 42.564C44.1223 42.5663 44.1348 42.5682 44.1473 42.5699C44.1599 42.5716 44.1726 42.573 44.1853 42.574C44.1979 42.5751 44.2105 42.5759 44.2232 42.5763C44.2359 42.5767 44.2486 42.5769 44.2613 42.5767C44.274 42.5765 44.2867 42.576 44.2993 42.5752C44.312 42.5744 44.3247 42.5733 44.3373 42.5719C44.3499 42.5705 44.3625 42.5688 44.375 42.5668C44.3875 42.5647 44.4 42.5624 44.4124 42.5598C44.4249 42.5572 44.4372 42.5543 44.4495 42.551C44.4617 42.5479 44.4739 42.5443 44.486 42.5405Z" fill="#E53935"/>
<path d="M19.9207 18.0954C21.8165 17.9209 23.809 18.0483 25.7168 18.0485L36.7752 18.0485L43.1822 18.0455C43.9391 18.0457 45.2764 17.94 45.9762 18.0983C46.2079 18.1508 46.419 18.274 46.5391 18.4834C46.6357 18.6518 46.655 18.8394 46.6019 19.0254C46.5217 19.3062 46.3457 19.4625 46.0968 19.5987C44.0309 19.7264 41.919 19.6369 39.8463 19.6349L28.7149 19.6297L23.211 19.6353C22.2859 19.6386 20.8041 19.7777 19.9377 19.5655C19.7409 19.5172 19.5821 19.4194 19.48 19.2415C19.4537 19.1952 19.4323 19.1468 19.4157 19.0962C19.3992 19.0456 19.3879 18.9939 19.3818 18.9411C19.3758 18.8882 19.375 18.8353 19.3796 18.7823C19.3842 18.7293 19.394 18.6773 19.4091 18.6263C19.4891 18.364 19.6912 18.2217 19.9207 18.0954Z" fill="#E53935"/>
<path d="M32.9409 23.15C35.4774 23.0679 38.0321 23.1274 40.5704 23.1273C42.0336 23.1272 45.1394 22.9527 46.4146 23.2971C46.4998 23.3895 46.5777 23.4804 46.6201 23.6007C46.6987 23.8238 46.6728 24.0314 46.5685 24.2415C46.439 24.5025 46.2806 24.5835 46.0098 24.67C44.6282 24.7764 33.2679 24.7873 32.6954 24.573C32.5241 24.5088 32.3714 24.3674 32.2994 24.1997C32.208 23.9869 32.2537 23.789 32.3439 23.5832C32.4636 23.3098 32.6802 23.2507 32.9409 23.15Z" fill="#E53935"/>
</g>
<defs>
<clipPath id="clip0_28012_8513">
<rect width="60" height="60" fill="white"/>
</clipPath>
</defs>
</svg>
