<svg width="60" height="60" viewBox="0 0 60 60" fill="none" xmlns="http://www.w3.org/2000/svg">
<path d="M14.5802 38.7072C13.3912 38.6139 12.3571 38.4154 11.5467 37.4531C11.0343 36.8448 10.8143 36.078 10.8813 35.2878C10.915 34.8896 11.0223 34.4338 11.193 34.0734C11.4054 33.6245 12.2546 32.735 12.1501 32.2578C11.9158 32.1631 10.5536 32.6872 10.0818 32.7136C8.77998 32.7868 5.68625 31.2909 5.14912 30.0755C4.87499 29.4552 5.01884 28.9971 5.25886 28.4024C5.58072 27.6047 6.08913 26.8477 6.52454 26.1076L8.69328 22.4244L11.5802 17.5114C12.1093 16.6086 12.6138 15.6607 13.1972 14.7937C13.4349 14.4407 13.853 13.8041 14.2513 13.6404C14.8885 13.3785 15.6182 13.5145 16.2252 13.7906C17.544 14.3906 19.1993 15.3529 19.7317 16.7824C19.9766 17.4398 20.0136 18.1158 20.0163 18.8104C20.9499 19.3638 21.812 19.5528 22.8751 19.2753C23.5467 19.1003 24.1955 18.812 24.8436 18.5654C26.9997 17.7453 27.9888 18.2447 29.9476 19.1328C31.4763 18.8966 33.0903 18.1184 34.6299 18.177C36.676 18.2544 37.7319 19.5837 40.1764 19.3901C39.915 18.3 39.998 17.1304 40.5861 16.1561C41.2356 15.08 43.1171 13.8903 44.3185 13.6037C44.7447 13.5019 45.5192 13.4512 45.8973 13.7095C46.2576 13.9557 46.6159 14.4954 46.8544 14.8581C48.2458 16.9746 49.4649 19.2714 50.7506 21.4582C51.9969 23.5773 53.3702 25.686 54.5105 27.8604C54.6969 28.216 54.9328 28.6708 54.9887 29.0726C55.0566 29.5606 54.8084 30.126 54.5137 30.4998C53.7728 31.4409 51.7597 32.5558 50.57 32.6892C49.9082 32.7633 49.2878 32.6482 48.6403 32.5258L47.5168 33.1576C48.0322 34.2243 48.3844 35.1922 47.9811 36.3731C47.9488 36.4694 47.9118 36.5638 47.87 36.6564C47.8284 36.7488 47.7822 36.839 47.7313 36.9271C47.6807 37.0149 47.6258 37.0999 47.5665 37.1821C47.5073 37.2646 47.4441 37.3437 47.3769 37.4196C47.3097 37.4955 47.2389 37.5679 47.1646 37.6366C47.0903 37.7054 47.0127 37.7701 46.9319 37.8308C46.8512 37.8918 46.7675 37.9485 46.6809 38.001C46.5945 38.0535 46.5056 38.1014 46.4143 38.1448C45.8298 38.4288 45.1341 38.582 44.4869 38.4889C44.3705 38.4724 44.0946 38.3767 43.9944 38.394C43.5259 38.474 43.1876 41.7493 39.936 41.0778C39.6177 42.1823 39.2112 43.0789 38.1669 43.6566C38.0818 43.7037 37.9946 43.7464 37.9055 43.7848C37.8163 43.8232 37.7255 43.8571 37.6331 43.8866C37.5407 43.9164 37.4469 43.9414 37.3519 43.9618C37.2572 43.982 37.1615 43.9976 37.065 44.0086C36.9687 44.0197 36.8721 44.026 36.7752 44.0275C36.678 44.029 36.5811 44.0258 36.4844 44.0177C36.3879 44.0097 36.2918 43.997 36.1961 43.9797C36.1007 43.9623 36.0063 43.9403 35.9131 43.9136C35.6468 43.8352 35.3922 43.722 35.1437 43.5994C34.6681 44.942 34.1314 45.6879 32.8256 46.3064C32.7736 46.3311 32.7293 46.3526 32.6834 46.3877H31.1564C30.0959 45.8184 29.0503 45.2225 28.0198 44.6001C27.2246 45.2998 26.4307 45.8018 25.3318 45.727C24.4678 45.6684 23.6924 45.2344 23.127 44.5819C22.9045 44.3252 22.742 44.0386 22.5833 43.7393C21.4695 43.9579 20.4573 44.0116 19.4707 43.3355C18.7534 42.844 18.41 42.1686 18.1836 41.3478C17.1598 41.3397 16.161 41.1133 15.4206 40.3517C14.9518 39.8696 14.7465 39.3507 14.5802 38.7072ZM26.6785 20.0586C23.6574 20.5479 22.5179 22.4442 19.175 20.5687L15.348 27.0702C14.7489 28.0865 14.0462 29.1012 13.5197 30.1546C13.4365 30.3212 13.3575 30.4789 13.3937 30.6693C14.2287 31.1862 15.9665 29.3647 18.1065 32.0346C18.8714 31.4058 19.6707 31.0785 20.673 31.1787C21.5434 31.2656 22.3043 31.706 22.8516 32.3879C23.1793 32.7962 23.3559 33.2315 23.4887 33.737C24.6019 33.8174 25.6489 34.0213 26.419 34.9078C27.002 35.5783 27.2139 36.4606 27.1487 37.336C27.1286 37.5998 27.0766 37.8591 27.0197 38.1171C27.949 38.3904 28.7494 38.8413 29.2325 39.7248C29.6545 40.4962 29.691 41.4425 29.4419 42.2773C29.3591 42.5558 29.2564 42.8265 29.1336 43.0896C29.9702 43.4985 31.4107 44.6986 32.3422 44.3779C32.6595 44.2686 32.9387 44.0353 33.0767 43.7237C33.2088 43.425 33.235 43.0776 33.1132 42.7714C32.7025 41.7392 29.8286 41.0066 30.3107 39.8611C30.4096 39.6266 30.5864 39.4037 30.8268 39.3074C31.1819 39.1653 31.5958 39.3117 31.9235 39.4656C33.0948 40.016 36.0184 42.4009 37.1994 41.9777C37.5074 41.8674 37.8302 41.5658 37.9675 41.2685C38.0764 41.032 38.067 40.786 37.9772 40.5453C37.8518 40.2105 37.5982 39.9298 37.3261 39.706C36.6805 39.1744 35.8766 38.7843 35.1531 38.365C34.2679 37.8477 33.3889 37.3203 32.5161 36.7826C32.3054 36.5035 32.2043 36.268 32.2543 35.9118C32.2873 35.6753 32.3862 35.4658 32.5791 35.32C32.802 35.1521 33.0767 35.1323 33.3433 35.1785C33.9262 35.279 37.6418 37.6018 38.4331 38.0842C39.0471 38.459 39.6746 38.962 40.3777 39.1451C40.7299 39.2369 41.1189 39.229 41.4236 39.0082C41.6847 38.8188 41.8298 38.4938 41.8686 38.1792C41.875 38.1281 41.8788 38.0768 41.8799 38.0254C41.8812 37.9737 41.8798 37.9222 41.8757 37.8708C41.8716 37.8194 41.865 37.7685 41.856 37.7179C41.8467 37.6672 41.835 37.6171 41.8208 37.5676C41.8065 37.518 41.7898 37.4693 41.7707 37.4216C41.7517 37.3739 41.7303 37.3271 41.7064 37.2814C41.6825 37.2358 41.6563 37.1916 41.6278 37.1486C41.5996 37.1057 41.5693 37.0644 41.5367 37.0247C41.1464 36.5419 40.4055 36.2507 39.8733 35.9449C38.9146 35.3935 35.1583 33.317 34.6749 32.7334C34.5366 32.5668 34.5127 32.3512 34.5282 32.1416C34.5453 31.909 34.6254 31.6182 34.8145 31.4676C34.9902 31.3274 35.2924 31.2591 35.5114 31.2942C36.2233 31.4087 37.0385 32.0197 37.6541 32.3892C39.2655 33.3564 43.6367 36.2215 45.0462 36.5923C45.5357 36.4202 45.9632 36.2433 46.2123 35.7439C46.3438 35.4804 46.3384 35.2003 46.244 34.9257C46.1551 34.6674 46.0482 34.5005 45.833 34.3297C44.536 33.3011 42.7882 32.4409 41.3548 31.5863C38.6202 29.9555 35.9014 28.2798 33.1284 26.7166C32.5736 27.8907 31.7483 28.865 30.5014 29.3179C29.8096 29.5693 28.9452 29.6725 28.2634 29.3439C27.8573 29.1484 27.4501 28.7866 27.3044 28.3481C26.8866 27.0888 26.989 22.4266 27.5926 21.2633C27.7616 20.937 27.9855 20.6452 28.2075 20.3537C27.7157 20.2151 27.1955 20.0378 26.6785 20.0586ZM44.851 15.3867C43.8687 15.9089 42.2777 16.5985 41.9103 17.7479C41.7746 18.1728 41.8941 18.5739 42.0948 18.9539C42.5494 19.8137 43.595 20.8082 43.2981 21.8466C43.2454 22.0304 43.1223 22.1739 42.9562 22.2653C42.7174 22.397 42.4053 22.4166 42.1478 22.3342C41.7548 22.209 41.5393 21.8232 41.3697 21.4718C41.3003 21.3265 41.2346 21.1795 41.1726 21.0307C39.375 21.5649 38.1255 21.3137 36.4126 20.6449C35.8659 20.4311 35.3101 20.2106 34.7233 20.1393C33.8932 20.0381 30.9567 20.8095 30.196 21.2249C29.8445 21.4169 29.5553 21.6755 29.3579 22.0285C29.1824 22.3424 29.0932 22.6872 29.047 23.0415C28.9636 23.6824 28.8819 26.8477 29.0541 27.392C29.0709 27.445 29.1006 27.4935 29.132 27.5387C29.6141 27.6008 30.0241 27.5862 30.4193 27.2723C31.4727 26.4359 31.3286 24.1268 32.3642 24.2266C33.2502 24.3119 40.3787 28.8052 41.8431 29.6552C43.1026 30.4243 44.439 31.3755 45.7897 31.9543C46.203 31.7168 46.6179 31.4503 47.056 31.2639C46.3636 29.7782 45.4162 28.3819 44.5977 26.9613C44.3654 26.5579 44.0416 26.1304 43.8758 25.7007C43.7892 25.4752 43.7747 25.1824 43.8626 24.9557C43.9492 24.7309 44.1398 24.5549 44.3599 24.4648C44.5683 24.3799 44.7777 24.3899 44.9835 24.4775C46.2463 25.0159 47.753 29.4112 48.9754 30.395C49.5505 30.8579 50.1557 30.9025 50.8324 30.6455C51.6169 30.3475 52.3685 29.7743 53.0933 29.3442C52.6338 28.3071 51.9956 27.3312 51.4214 26.3545L48.6784 21.696L46.2547 17.5644C45.8792 16.9242 45.5238 16.2017 45.0937 15.6005C45.03 15.5113 44.9425 15.4446 44.851 15.3867ZM15.0779 15.3435L10.0104 23.9215C8.96134 25.7039 7.8118 27.4821 6.89196 29.3345C7.78155 29.8943 8.87533 30.7424 9.94684 30.8368C10.6463 30.7343 11.051 30.4314 11.4706 29.8699C12.3797 28.6536 13.0779 27.161 13.8591 25.8477L16.3668 21.6023C16.836 20.8049 17.3743 19.9981 17.7596 19.1569C17.9407 18.7613 18.1545 18.2128 18.0861 17.7736C17.9979 17.2085 17.4415 16.7394 16.9973 16.4323C16.4806 16.0748 15.6723 15.5335 15.0779 15.3435ZM23.7852 35.6554C23.5512 35.7634 23.3293 35.8773 23.1404 36.0565C22.4357 36.7251 20.5731 39.298 20.2444 40.1845C20.1078 40.5528 20.0488 41.0053 20.2232 41.3722C20.3545 41.6481 20.607 41.8163 20.8882 41.9129C21.0838 41.9799 21.3255 42.005 21.5324 41.9975C21.7133 41.9419 21.9171 41.8801 22.0623 41.7535C22.7146 41.1852 24.5106 38.6331 24.934 37.8298C25.1449 37.4297 25.2928 36.9759 25.1582 36.5247C25.0712 36.2332 24.8755 36.01 24.6067 35.8727C24.3488 35.7413 24.0677 35.698 23.7852 35.6554ZM20.1394 33.0698C19.959 33.1241 19.7751 33.1859 19.629 33.3095C18.9584 33.8785 17.2094 36.3649 16.7712 37.1815C16.5481 37.5972 16.3707 38.0846 16.5106 38.5579C16.5909 38.8296 16.7705 39.041 17.0194 39.1724C17.2805 39.3097 17.5779 39.3328 17.8662 39.3634C18.0446 39.3123 18.2421 39.2547 18.3883 39.136C19.1122 38.5469 20.7595 36.1776 21.2353 35.3164C21.466 34.8987 21.6484 34.4026 21.5196 33.9224C21.4415 33.6313 21.2558 33.3964 20.991 33.2555C20.7447 33.1244 20.4141 33.0955 20.1394 33.0698ZM15.0481 32.4162C14.2422 32.7044 13.4118 33.9462 13.0523 34.7042C12.8601 35.1092 12.7371 35.578 12.8995 36.0149C12.9969 36.2768 13.2015 36.4638 13.4548 36.5722C13.7518 36.699 14.0631 36.6961 14.3788 36.6886C15.1799 36.4212 16.0387 35.0328 16.4085 34.2858C16.514 34.0727 16.5704 33.8405 16.6198 33.6088C16.4754 33.2071 16.3516 32.762 15.9373 32.5613C15.674 32.4338 15.3362 32.4175 15.0481 32.4162ZM25.9849 40.0469C25.2792 40.4509 24.6061 41.3729 24.3838 42.1644C24.2679 42.5769 24.3441 42.9266 24.454 43.3261C24.9864 43.6583 25.3241 43.7842 25.9569 43.7468C26.6698 43.2988 27.4378 42.3479 27.6272 41.5056C27.6976 41.192 27.6947 40.8309 27.5157 40.5531C27.3283 40.2632 27.0068 40.1188 26.6782 40.0622C26.4533 40.0235 26.2121 40.0384 25.9849 40.0469Z" fill="#E53935"/>
</svg>
