<svg width="60" height="60" viewBox="0 0 60 60" fill="none" xmlns="http://www.w3.org/2000/svg">
<g clip-path="url(#clip0_28012_8498)">
<path d="M28.4638 2.05541C29.1971 2.01044 33.2138 1.894 33.5586 2.24077C34.0478 2.73281 34.0833 3.85954 34.1772 4.51268C34.2306 4.88475 34.2438 5.21682 34.5471 5.47934C35.2179 5.73795 36.8476 4.2051 37.6526 3.9015C37.8878 4.02508 38.1116 4.1335 38.3195 4.30344C38.8443 4.73254 41.0808 6.88458 41.4113 7.36772C42.1455 8.44172 40.1193 9.83384 39.9263 10.881C40.2759 11.7429 42.5617 11.1769 43.2887 11.961C43.6906 12.3943 43.5239 13.4066 43.5057 13.9641C45.7199 13.9956 48.4504 13.5079 50.1802 15.1993C50.4762 15.4919 50.7294 15.8179 50.9398 16.177C52.0672 18.0899 52.9929 20.1987 53.9957 22.1833C54.6139 23.4062 55.5516 24.9041 55.9705 26.179C56.1238 26.6455 56.0727 27.2602 56.076 27.7483L56.0808 47.3813L56.079 53.2108C56.0787 54.2076 56.1686 55.3106 56.0186 56.2925C55.8815 57.1932 55.4261 58.0389 54.7863 58.6814C54.1854 59.2846 53.4014 59.7446 52.5593 59.8988C51.7017 60.0559 50.7653 59.9941 49.8945 59.9929L46.0199 59.986L31.5814 59.9884L15.1174 59.989L10.5331 59.9938C9.59318 59.9941 8.57442 60.0619 7.64715 59.9042C6.78368 59.7575 5.93288 59.3246 5.31109 58.7071C4.69527 58.0956 4.24804 57.3225 4.09747 56.4625C3.93289 55.5221 4.02642 54.4392 4.026 53.4811L4.02501 48.0084L4.0214 28.2682C4.02131 27.6609 3.94251 26.8523 4.10886 26.2705C4.43304 25.1368 5.52707 23.3253 6.08787 22.213C7.09884 20.208 8.03369 18.0732 9.17377 16.1419C9.39403 15.776 9.65619 15.4432 9.96023 15.1433C10.4176 14.6895 10.9285 14.3818 11.5471 14.1983C13.0762 13.7449 16.399 13.9721 18.1276 13.9721C18.0754 13.3726 18.0356 12.5697 18.3513 12.0396C18.878 11.1553 20.3578 11.5719 21.2013 11.3317C21.3821 11.2802 21.6105 11.1603 21.6972 10.9858C21.9271 10.5231 20.2733 8.71837 20.0949 8.12649C20.0238 7.89074 20.1015 7.69841 20.2192 7.49372C20.5627 6.89647 23.2597 4.14312 23.7926 4.01258C24.6607 3.79993 25.7452 5.05924 26.4438 5.48152C26.6665 5.61613 26.8309 5.65882 27.0837 5.59516C27.7396 5.08167 27.4779 3.35767 27.8632 2.56165C28.007 2.26457 28.1542 2.15816 28.4638 2.05541ZM53.4895 57.4955C53.8149 57.1427 54.1532 56.7705 54.2356 56.2793C54.4191 55.1899 54.3462 54.0165 54.3447 52.9132L54.3372 47.8993L54.3381 34.6601C54.3387 32.2574 54.2957 29.845 54.351 27.4433C50.1384 27.3598 45.9135 27.4229 41.6997 27.425L19.5165 27.4262L10.4345 27.425C8.89053 27.4245 7.31153 27.4997 5.77382 27.4065L5.76854 46.734L5.75966 52.5661C5.75784 53.6959 5.68705 54.8807 5.83075 56.0021C5.90342 56.5691 6.10664 57.016 6.51141 57.4241C7.46742 58.3881 8.82823 58.2145 10.0745 58.2136L38.7522 58.2062L47.3027 58.2092C48.84 58.2127 50.4566 58.3245 51.9829 58.1724C52.6089 58.11 53.0287 57.9119 53.4895 57.4955ZM28.7846 6.71535C28.1939 7.12996 27.3488 7.64637 26.5986 7.51607C25.7702 7.37217 24.8024 6.44571 24.1302 5.94271C23.4413 6.62136 22.6666 7.3037 22.0703 8.06433C22.6717 8.87105 23.7576 9.97394 23.5977 11.0376C23.5121 11.6064 23.1449 12.2727 22.757 12.6937C21.8884 13.0238 20.8647 13.1924 19.9388 13.2775C19.8783 14.2398 19.8947 15.2058 19.898 16.1695C20.8333 16.31 21.869 16.4271 22.7518 16.7715C23.192 17.1941 23.602 17.9955 23.6199 18.6112C23.649 19.612 22.5902 20.6207 22.0795 21.4342C22.4689 21.837 23.6904 23.3477 24.2485 23.3455C25.1937 23.3419 25.991 20.6301 28.8116 22.7613C29.082 23.6855 29.2096 24.6538 29.3444 25.6055C30.2959 25.6365 31.2475 25.6464 32.1993 25.6352C32.3347 25.4793 32.3649 25.2551 32.413 25.0597C32.5477 24.5129 32.5253 23.9748 32.6314 23.433C32.8286 22.4276 34.0878 22.0007 34.9824 21.8256C35.8977 22.2802 36.6549 23 37.5576 23.4544C38.2284 22.7827 38.9964 22.1189 39.5973 21.3881C39.0026 20.5958 38.2983 19.7604 37.8949 18.8497C38.1615 18.177 38.4008 17.3482 38.8362 16.7657C39.7816 16.4815 40.7584 16.3479 41.7308 16.1882C41.7436 15.2164 41.7765 14.2396 41.7481 13.2682C40.7551 13.0953 39.1658 13.1141 38.5511 12.2298C38.2431 11.7863 38.0874 11.1391 37.9105 10.6289C38.3635 9.6716 39.0486 8.92264 39.5871 8.02899C38.904 7.33593 38.2132 6.63439 37.4904 5.98354C36.7532 6.52825 35.5798 7.68025 34.6027 7.52927C34.0505 7.44392 33.2607 7.04879 32.8074 6.71579C32.7076 6.15433 32.5708 4.24755 32.1467 3.94648C31.7165 3.64095 29.9748 3.8414 29.375 3.82497C29.1521 4.77219 29.1565 5.81067 28.7846 6.71535ZM18.1401 15.7818C16.702 15.7423 15.265 15.7765 13.8272 15.7546L13.8329 22.1442C13.8336 23.2919 13.8983 24.4846 13.8025 25.6267C18.4087 25.7064 23.0287 25.6566 27.6356 25.6506C27.4666 25.1302 27.5358 24.1385 27.0865 23.8205C26.8015 23.7971 26.6352 23.8787 26.4042 24.0516C25.6692 24.5844 24.9219 25.2096 24.0622 25.5254C23.847 25.4472 23.6027 25.366 23.4197 25.2264C22.7927 24.7481 20.4628 22.4766 20.1423 21.8114C20.0326 21.5836 20.067 21.4393 20.1513 21.2109C20.4118 20.506 21.969 19.067 21.6953 18.4251C20.8414 17.7221 18.2364 18.3878 18.1201 16.9444C18.0894 16.5637 18.1247 16.1631 18.1401 15.7818ZM37.7031 25.5421C37.4629 25.4601 37.2175 25.3694 37 25.2376C36.51 24.9409 35.0049 23.6768 34.493 23.902C34.2695 24.3063 34.2202 24.8612 34.1332 25.3143L34.0989 25.5137C34.2342 25.6295 34.3412 25.6365 34.5187 25.6484C35.5636 25.7182 36.6283 25.6212 37.6759 25.6171C40.5334 25.6057 43.4373 25.5625 46.2903 25.6616C46.1839 24.5128 46.2562 23.3092 46.2595 22.1546L46.2673 15.7859C45.3598 15.7695 44.4419 15.796 43.5365 15.7524C43.5302 16.3992 43.5986 17.1326 43.0975 17.6307C42.41 18.3143 40.1656 17.7386 39.9203 18.5915C40.0858 19.781 42.2617 20.9211 41.2972 22.1905C40.9407 22.6595 38.7896 24.8083 38.3094 25.1969C38.1295 25.3423 37.9123 25.4458 37.7031 25.5421ZM6.64949 25.6438L12.1114 25.6467C12.053 23.3897 12.0975 21.1221 12.0993 18.8641C12.0999 18.0079 12.1901 17.0564 12.1003 16.2153C12.0917 16.1344 12.051 16.0672 11.9981 16.007L11.8229 15.9737C11.3819 16.2314 11.0723 16.4919 10.7833 16.9163C10.3189 17.5985 9.97634 18.3845 9.60782 19.1222L7.8143 22.7144C7.47118 23.3948 6.6044 24.7729 6.44364 25.4451C6.43118 25.4972 6.43894 25.5318 6.44794 25.5835C6.50931 25.6036 6.5859 25.6399 6.64949 25.6438ZM47.995 25.636L53.5803 25.6478L53.6625 25.5175C53.0198 23.9222 52.1024 22.352 51.3267 20.8119C50.7288 19.6246 49.9405 17.7141 49.181 16.7184C48.8855 16.331 48.5003 16.0993 48.0736 15.8818C47.966 16.8945 48.0123 17.9433 48.0123 18.9621C48.012 21.1804 48.0814 23.4202 47.995 25.636Z" fill="#E53935"/>
<path d="M23.6477 31.4339C26.3341 31.3306 29.0551 31.4219 31.7451 31.4228C33.3304 31.4234 35.0709 31.2595 36.6348 31.4688C37.2513 31.5511 37.8306 31.7436 38.3405 32.1142C39.0484 32.628 39.4944 33.3942 39.6351 34.2663C39.7896 35.225 39.6039 36.204 39.0405 36.9939C38.4181 37.8672 37.5721 38.2853 36.5499 38.446C33.7476 38.5111 30.9364 38.4499 28.133 38.4553C26.6468 38.4583 24.8772 38.6361 23.4221 38.4069C22.7826 38.306 22.1923 38.0576 21.6835 37.6462C21.5968 37.5765 21.5137 37.5026 21.4342 37.4246C21.3547 37.3465 21.2792 37.2645 21.2077 37.1786C21.1362 37.0929 21.0691 37.0037 21.0063 36.911C20.9435 36.8183 20.8854 36.7227 20.8319 36.6242C20.7784 36.5255 20.7299 36.4244 20.6863 36.3209C20.6426 36.2173 20.6042 36.1118 20.5708 36.0043C20.5375 35.897 20.5095 35.7882 20.4868 35.6779C20.4641 35.5675 20.4468 35.4563 20.4349 35.3442C20.4227 35.2249 20.4162 35.1053 20.4154 34.9856C20.4147 34.8657 20.4196 34.746 20.4303 34.6267C20.441 34.5072 20.4574 34.3886 20.4795 34.2708C20.5016 34.1531 20.5292 34.0368 20.5625 33.9219C20.5957 33.8069 20.6344 33.6939 20.6784 33.5828C20.7225 33.4717 20.7718 33.363 20.8263 33.2569C20.8808 33.1508 20.9402 33.0476 21.0046 32.9473C21.069 32.8472 21.138 32.7505 21.2117 32.6572C21.8499 31.8514 22.6669 31.5388 23.6477 31.4339ZM36.7088 36.5827C37.2466 36.3995 37.553 36.1611 37.81 35.6298C38.0065 35.2235 38.0621 34.8508 37.9205 34.4105C37.7851 33.9885 37.489 33.5861 37.0918 33.3903C36.7834 33.2383 36.4024 33.2044 36.0643 33.1843C33.7155 33.0455 31.2889 33.1743 28.9338 33.1776C27.1393 33.18 25.2127 33.0188 23.4367 33.2347C22.9515 33.3951 22.5961 33.6233 22.349 34.1026C22.3212 34.1557 22.2961 34.2102 22.2737 34.266C22.2513 34.3217 22.2317 34.3784 22.2149 34.4363C22.1981 34.494 22.1841 34.5524 22.1731 34.6117C22.1621 34.671 22.154 34.7306 22.1489 34.7907C22.1438 34.8508 22.1416 34.9109 22.1424 34.9712C22.1432 35.0315 22.147 35.0915 22.1538 35.1514C22.1605 35.2113 22.1702 35.2706 22.1828 35.3295C22.1954 35.3883 22.2109 35.4464 22.2293 35.5037C22.2444 35.5517 22.2617 35.5989 22.2814 35.6451C22.301 35.6914 22.3228 35.7365 22.3468 35.7806C22.3709 35.8246 22.3969 35.8674 22.4251 35.9088C22.4532 35.9503 22.4832 35.9902 22.5152 36.0286C22.5472 36.0671 22.581 36.1037 22.6165 36.1386C22.6521 36.1736 22.6892 36.2067 22.7279 36.238C22.7667 36.2692 22.8068 36.2984 22.8484 36.3257C22.8899 36.3529 22.9327 36.3779 22.9766 36.4007C23.3307 36.5809 23.7586 36.6221 24.1485 36.647C26.3846 36.7891 28.694 36.647 30.9376 36.6485C32.6216 36.6494 35.1455 36.8212 36.7088 36.5827Z" fill="#E53935"/>
<path d="M15.4067 49.2718C15.4308 49.2707 15.455 49.2698 15.4792 49.2689C15.8473 49.2563 16.2037 49.2775 16.484 49.5192C16.958 50.2937 16.9192 53.3724 16.6523 54.2616C16.5516 54.5971 16.3893 54.8047 16.0653 54.9785C15.8537 54.9997 15.6339 55.0064 15.4244 54.9656C15.2415 54.9302 15.1077 54.8332 15.0151 54.6875C14.5912 54.0214 14.6633 50.6669 14.8805 49.8857C14.9708 49.5609 15.0991 49.4443 15.4067 49.2718Z" fill="#E53935"/>
<path d="M24.5195 49.2662C24.5549 49.2659 24.5887 49.2665 24.624 49.2697C24.83 49.2886 25.0762 49.2974 25.2158 49.5377C25.5054 50.0358 25.4125 53.3943 25.3314 54.1083C25.2841 54.525 25.1906 54.746 24.9425 54.9938C24.7821 55.0007 24.6333 54.9856 24.4778 54.9272C24.3573 54.8817 24.2243 54.7848 24.165 54.6257C23.9479 54.0442 23.9348 50.5043 24.0858 49.8505C24.1565 49.5443 24.3215 49.407 24.5195 49.2662Z" fill="#E53935"/>
<path d="M11.2052 49.2661C11.3662 49.2696 11.527 49.2762 11.6848 49.3077C11.9468 49.3598 12.1732 49.4481 12.3156 49.6663C12.6769 50.2195 12.5997 53.641 12.3738 54.3253C12.2614 54.6656 12.0845 54.8154 11.7488 54.981C11.5396 55.0024 11.266 55.0065 11.0659 54.946C10.8942 54.8942 10.7374 54.7842 10.6606 54.6328C10.3407 54.0017 10.3528 50.3494 10.6479 49.7035C10.7668 49.4434 10.9276 49.3733 11.2052 49.2661Z" fill="#E53935"/>
<path d="M20.2129 49.2675C20.3533 49.2596 20.5066 49.2867 20.6433 49.3277C20.7711 49.3658 20.8989 49.4673 20.9657 49.6246C21.2091 50.1969 21.1487 53.581 21.0165 54.2915C20.9513 54.6416 20.8236 54.8162 20.601 54.9908C20.4811 55.0025 20.3365 54.9927 20.2202 54.948C20.0936 54.8994 19.992 54.7532 19.9282 54.6003C19.6212 53.8644 19.6702 50.7438 19.8359 49.9079C19.9004 49.5823 20.0057 49.4358 20.2129 49.2675Z" fill="#E53935"/>
<path d="M30.3123 9.88438C30.4706 9.87458 30.627 9.87443 30.7844 9.89463C31.0828 9.93286 31.3923 10.0969 31.5685 10.349C31.6774 10.5047 31.7086 10.6576 31.6798 10.8436C31.5621 11.5998 29.616 11.8195 28.9333 12.3248C28.3905 12.7265 28.0177 13.2633 27.9207 13.947C27.8075 14.7454 28.0125 15.6588 28.499 16.3054C28.9392 16.8906 29.6758 17.2782 30.3951 17.3701C31.6722 17.5333 32.9503 16.7626 33.4381 15.5618C33.6537 15.0311 33.4788 14.213 33.9863 13.8349C34.178 13.6919 34.3957 13.6468 34.6292 13.6884C34.8669 13.7308 35.1185 13.8087 35.2541 14.0196C35.5509 14.4818 35.3381 15.2195 35.2413 15.7201C35.0637 16.2962 34.8029 16.8604 34.4433 17.3445C34.3547 17.4658 34.2603 17.5823 34.1601 17.694C34.0598 17.8058 33.9543 17.9122 33.8435 18.0133C33.7325 18.1144 33.6169 18.2097 33.4966 18.2991C33.3764 18.3885 33.2519 18.4716 33.1231 18.5485C32.9945 18.6254 32.8624 18.6955 32.7268 18.759C32.5911 18.8225 32.4527 18.879 32.3114 18.9286C32.1701 18.9781 32.0267 19.0204 31.8811 19.0554C31.7356 19.0905 31.5887 19.1181 31.4405 19.1383C30.2247 19.3136 28.971 19.0245 27.9899 18.2722C27.0059 17.5177 26.3409 16.4292 26.1754 15.1918C26.153 15.0362 26.1384 14.8799 26.1316 14.7229C26.1247 14.5659 26.1255 14.4089 26.1341 14.2519C26.1427 14.095 26.159 13.9389 26.1831 13.7836C26.2071 13.6282 26.2387 13.4745 26.2779 13.3224C26.3171 13.1702 26.3637 13.0204 26.4177 12.8729C26.4717 12.7254 26.5328 12.581 26.601 12.4396C26.6693 12.2982 26.7443 12.1606 26.8262 12.0267C26.908 11.8929 26.9962 11.7634 27.0908 11.6383C27.9213 10.5555 28.9888 10.059 30.3123 9.88438Z" fill="#E53935"/>
</g>
<defs>
<clipPath id="clip0_28012_8498">
<rect width="60" height="60" fill="white"/>
</clipPath>
</defs>
</svg>
