<svg width="60" height="60" viewBox="0 0 60 60" fill="none" xmlns="http://www.w3.org/2000/svg">
<path d="M38.3794 45.3841C39.5584 45.3398 47.1391 45.2296 47.7037 45.5098C47.9404 45.6273 48.144 45.8463 48.2186 46.1037C48.3035 46.3958 48.2324 46.7075 48.0808 46.9654C47.9177 47.2426 47.6408 47.3294 47.3511 47.4075C45.4165 47.4613 43.4694 47.4165 41.533 47.4167C40.5505 47.4167 39.4934 47.5087 38.5178 47.4286C38.2936 47.4103 38.0584 47.3359 37.8699 47.2109C37.8126 47.1735 37.7596 47.1306 37.7109 47.0824C37.6623 47.0339 37.6189 46.9812 37.5807 46.9242C37.5425 46.867 37.5104 46.8064 37.4844 46.7426C37.4584 46.6788 37.4389 46.6131 37.426 46.5455C37.4143 46.4861 37.4087 46.4261 37.4092 46.3657C37.4097 46.305 37.4163 46.2452 37.4288 46.1861C37.4414 46.1268 37.4597 46.0696 37.4839 46.0143C37.508 45.9588 37.5374 45.9064 37.572 45.8571C37.77 45.5724 38.0513 45.4465 38.3794 45.3841Z" fill="#EE021B"/>
<path d="M39.126 27.2174C40.616 27.155 42.1261 27.1999 43.6184 27.1993C44.7107 27.199 45.844 27.1347 46.9299 27.2201C47.2222 27.2431 47.6806 27.2837 47.9315 27.446C48.0747 27.5386 48.195 27.8424 48.235 28.0028C48.2969 28.2515 48.2686 28.4953 48.1303 28.7126C47.8964 29.08 47.6074 29.1571 47.2117 29.2366C45.6889 29.2813 44.1538 29.2469 42.6299 29.2501C41.5396 29.2524 40.4015 29.3202 39.3161 29.2252C39.0432 29.2013 38.7217 29.1671 38.4883 29.0122C38.2918 28.8817 38.1629 28.6724 38.1193 28.4401C38.0648 28.1509 38.1425 27.8543 38.3071 27.6134C38.5058 27.3226 38.8078 27.2793 39.126 27.2174Z" fill="#EE021B"/>
<path d="M32.4996 44.9045C32.8647 44.8847 33.2803 44.9208 33.5745 45.167C33.7114 45.2814 33.7707 45.4494 33.7801 45.6246C33.8084 46.137 33.482 46.5971 33.1552 46.9567C32.6802 47.4794 29.8307 50.5327 29.2419 50.5402C28.7241 50.5466 28.3979 50.1584 28.051 49.8266C27.7012 49.4804 27.2915 49.1285 27.035 48.7044C26.8888 48.4628 26.789 48.1745 26.8618 47.8906C26.9286 47.6304 27.1408 47.4001 27.3697 47.2713C28.1552 46.83 28.5342 47.7505 29.1412 47.9292C29.4679 48.0256 31.858 45.2601 32.4996 44.9045Z" fill="#EE021B"/>
<path d="M38.3811 50.1534C39.3343 50.0972 40.3017 50.1405 41.2572 50.133C42.1507 50.1261 43.1014 50.0514 43.9893 50.1467C44.2451 50.1743 44.5167 50.2214 44.7374 50.3623C44.9458 50.495 45.0948 50.6916 45.1455 50.9376C45.2036 51.2179 45.1244 51.5167 44.9641 51.7491C44.7499 52.0605 44.4933 52.1486 44.1373 52.2102C43.1317 52.2635 42.1028 52.2285 41.0952 52.2339C40.29 52.2383 39.4225 52.3053 38.6234 52.2058C38.3666 52.1739 38.1065 52.1023 37.8815 51.9706C37.67 51.8467 37.4797 51.6514 37.4206 51.4052C37.3541 51.1269 37.4608 50.8229 37.6086 50.589C37.7962 50.2917 38.0642 50.2284 38.3811 50.1534Z" fill="#EE021B"/>
<path d="M38.7771 32.0452C39.6039 31.9451 43.9496 31.8918 44.5606 32.1124C44.7807 32.192 44.9785 32.3395 45.0768 32.5593C45.1899 32.8124 45.1749 33.1568 45.0755 33.4119C44.9542 33.7228 44.7005 33.8472 44.4182 33.9755C43.4288 34.0634 39.6819 34.135 38.8503 33.9353C38.611 33.8782 38.3657 33.7539 38.237 33.532C38.0984 33.2929 38.0813 32.9097 38.1606 32.6495C38.2579 32.3296 38.506 32.1929 38.7771 32.0452Z" fill="#EE021B"/>
<path d="M30.1715 27.584C30.4477 27.62 30.7204 27.7196 30.9341 27.9033C31.0913 28.0382 31.1805 28.2191 31.1932 28.4276C31.222 28.8961 30.8801 29.3504 30.5825 29.679C29.755 30.5932 28.8251 31.4258 27.9613 32.3053C27.2512 33.0283 26.5581 33.8885 25.7685 34.5158C25.5721 34.6719 25.2989 34.852 25.041 34.8556C24.2707 34.8667 23.1231 33.3898 22.6008 32.8471C22.2259 32.4772 21.6174 32.0104 21.5124 31.4735C21.4999 31.41 21.4937 31.346 21.4937 31.2813C21.4936 31.2166 21.4998 31.1525 21.5121 31.089C21.5245 31.0256 21.5428 30.9639 21.567 30.9041C21.5913 30.8442 21.6211 30.7873 21.6563 30.7334C21.7918 30.5304 22.0145 30.3786 22.2535 30.3352C23.2354 30.157 24.2843 31.8403 25.0238 32.3752L25.0457 32.3909C26.1588 31.3785 27.1881 30.2167 28.246 29.1421C28.6967 28.6843 29.1585 28.148 29.687 27.7826C29.8341 27.6809 30.0003 27.6282 30.1715 27.584Z" fill="#EE021B"/>
<path d="M28.6317 43.5117C28.8583 43.5176 29.0894 43.5717 29.3128 43.6101C29.5508 43.8394 29.7174 44.0756 29.8225 44.3912C29.8696 44.5329 29.882 44.6944 29.8101 44.8307C29.445 45.5214 28.3424 45.5425 27.6884 45.7494C27.5919 45.7808 27.4972 45.8168 27.4041 45.8573C27.3111 45.898 27.2202 45.9431 27.1315 45.9926C27.0427 46.0421 26.9565 46.0956 26.8728 46.1533C26.7891 46.2112 26.7084 46.273 26.6306 46.3386C26.5528 46.4042 26.4783 46.4735 26.4071 46.5465C26.3358 46.6193 26.2682 46.6954 26.2042 46.7747C26.1402 46.8542 26.0801 46.9367 26.024 47.022C25.9678 47.1072 25.9158 47.195 25.868 47.2853C25.4634 48.0662 25.3707 49.0943 25.632 49.9362C25.8804 50.7361 26.5732 51.4827 27.3031 51.864C28.6155 52.5492 30.2838 52.2633 31.2747 51.1375C31.6701 50.688 31.8995 49.7847 32.5125 49.6047C32.7665 49.53 33.0705 49.5797 33.2985 49.7103C33.5197 49.837 33.7072 50.029 33.7699 50.284C33.9036 50.8273 33.4761 51.4435 33.216 51.8861C33.112 52.0431 32.999 52.1931 32.8768 52.3362C32.8208 52.4042 32.7631 52.4708 32.7038 52.5359C32.6445 52.6008 32.5836 52.6642 32.5211 52.7262C32.4588 52.7884 32.3949 52.8489 32.3295 52.9076C32.2641 52.9665 32.1974 53.0237 32.1293 53.0792C32.061 53.1346 31.9914 53.1884 31.9206 53.2404C31.8499 53.2925 31.7779 53.3427 31.7045 53.3911C31.6313 53.4394 31.557 53.486 31.4816 53.5308C31.406 53.5754 31.3294 53.6182 31.2518 53.6591C31.1742 53.6999 31.0956 53.7388 31.0161 53.7758C30.9366 53.8127 30.8562 53.8476 30.7748 53.8806C30.6936 53.9134 30.6117 53.9443 30.5289 53.9731C30.4462 54.002 30.3628 54.0287 30.2787 54.0532C30.1947 54.078 30.1101 54.1005 30.025 54.121C29.9398 54.1414 29.8542 54.1597 29.7681 54.1759C29.6821 54.192 29.5957 54.206 29.509 54.2178C29.4222 54.2295 29.3353 54.2391 29.2481 54.2467C29.1605 54.2536 29.0728 54.2582 28.9849 54.2606C28.8971 54.263 28.8093 54.2633 28.7214 54.2614C28.6336 54.2595 28.5458 54.2555 28.4582 54.2493C28.3706 54.2429 28.2831 54.2345 28.1959 54.224C28.1087 54.2134 28.0217 54.2006 27.9351 54.1856C27.8485 54.1709 27.7623 54.1539 27.6765 54.1346C27.5907 54.1154 27.5055 54.0941 27.4207 54.0707C27.3359 54.0474 27.2518 54.022 27.1682 53.9945C27.0847 53.9668 27.0019 53.9372 26.9198 53.9056C26.8377 53.8738 26.7565 53.8402 26.676 53.8046C26.5956 53.7689 26.516 53.7312 26.4374 53.6915C26.3587 53.6519 26.2811 53.6103 26.2045 53.5668C26.1279 53.5234 26.0524 53.4781 25.9779 53.4308C25.9035 53.3836 25.8303 53.3346 25.7582 53.2837C25.6862 53.2329 25.6154 53.1803 25.5459 53.1261C25.4764 53.0716 25.4083 53.0155 25.3415 52.9578C24.2605 52.0168 23.6313 50.7521 23.5301 49.3156C23.4279 47.8634 23.8478 46.4465 24.7976 45.3416C25.8248 44.1467 27.0931 43.622 28.6317 43.5117Z" fill="#EE021B"/>
<path d="M31.2597 8H40.8395C42.0064 8.63583 43.0727 9.1279 43.4875 10.5218C43.659 11.0972 43.6914 11.7289 43.658 12.3262L49.5263 12.3357C50.6461 12.3375 51.9379 12.2108 53.0294 12.4539C53.5387 12.5673 53.8992 12.7607 54.2677 13.1367C54.6468 13.5234 54.8371 14.0094 54.8967 14.5435C55.0201 15.6463 54.9416 16.8291 54.939 17.9396L54.9319 24.0441L54.9339 36.2677C54.9344 38.0523 54.9818 39.8471 54.95 41.6301C54.9413 42.1175 54.845 42.6562 54.4807 43.0068C54.324 43.1578 54.1186 43.2618 53.8987 43.2551C53.6595 43.2479 53.4363 43.1155 53.2781 42.9393C53.0954 42.7355 52.9817 42.4501 52.9591 42.177C52.8847 41.2831 52.9481 40.326 52.9484 39.4269L52.9509 33.857L52.9532 15.5998C52.9522 15.3944 53.0034 14.6917 52.8972 14.5334C52.8431 14.453 52.346 14.4231 52.2502 14.4164C51.1391 14.3382 49.9169 14.5536 48.8294 14.3743C48.8121 15.5821 48.807 16.8033 47.8923 17.7103C47.5 18.0992 46.9178 18.4349 46.3715 18.525C45.6352 18.6465 44.8135 18.5833 44.0672 18.5839L39.9997 18.5842C35.6637 18.5828 31.3186 18.6493 26.9838 18.5821C25.8967 18.5652 24.9617 18.4547 24.172 17.6282C23.3324 16.7494 23.3656 15.5699 23.374 14.43C22.0304 14.3938 20.6298 14.3177 19.2932 14.4639C19.0531 15.9037 19.1966 17.6831 19.1986 19.1562C19.2005 20.5708 19.1068 22.0594 19.2556 23.4646C21.091 21.5956 23.6486 20.6195 26.2384 20.6112C26.4065 20.6098 26.5744 20.6127 26.7423 20.6198C26.9102 20.6269 27.0779 20.6383 27.2452 20.6539C27.4126 20.6695 27.5794 20.6894 27.7457 20.7135C27.9121 20.7375 28.0778 20.7658 28.2427 20.7983C28.4077 20.8308 28.5717 20.8675 28.7348 20.9083C28.898 20.9491 29.06 20.9941 29.2209 21.0431C29.3818 21.0921 29.5414 21.1452 29.6996 21.2024C29.8579 21.2595 30.0147 21.3207 30.17 21.3857C30.325 21.4509 30.4785 21.5199 30.6304 21.5927C30.7822 21.6656 30.9321 21.7423 31.0801 21.8228C31.228 21.9033 31.3739 21.9875 31.5178 22.0754C31.6617 22.1633 31.8032 22.2548 31.9425 22.3499C32.0818 22.445 32.2186 22.5436 32.353 22.6456C32.4874 22.7476 32.6191 22.853 32.7482 22.9617C32.8774 23.0704 33.0038 23.1824 33.1273 23.2975C33.251 23.4127 33.3716 23.5308 33.4894 23.6521C33.6081 23.7707 33.7238 23.8921 33.8366 24.0165C33.9494 24.1409 34.0591 24.268 34.1658 24.398C34.2723 24.5278 34.3756 24.6603 34.4756 24.7954C34.5757 24.9305 34.6723 25.0681 34.7656 25.208C34.8588 25.3479 34.9486 25.4902 35.0349 25.6346C35.1212 25.7791 35.2038 25.9256 35.2828 26.0742C35.362 26.2228 35.4374 26.3734 35.5091 26.5258C35.5807 26.6782 35.6486 26.8323 35.7126 26.9881C35.7767 27.1439 35.8369 27.3012 35.8933 27.4601C35.9497 27.6189 36.0022 27.7791 36.0508 27.9406C36.0992 28.1021 36.1436 28.2647 36.184 28.4284C36.2246 28.5921 36.261 28.7567 36.2933 28.9223C36.3258 29.0878 36.3541 29.2541 36.3784 29.4211C36.4025 29.588 36.4226 29.7555 36.4385 29.9235C36.4547 30.0915 36.4666 30.2598 36.4742 30.4284C36.4819 30.5969 36.4854 30.7656 36.4849 30.9343C36.4851 31.1029 36.4812 31.2713 36.4732 31.4396C36.465 31.6079 36.4528 31.776 36.4365 31.9437C36.4202 32.1114 36.3998 32.2786 36.3754 32.4453C36.3509 32.612 36.3224 32.778 36.2897 32.9432C36.257 33.1085 36.2203 33.2728 36.1797 33.4362C36.1389 33.5997 36.0942 33.762 36.0457 33.9232C35.9971 34.0844 35.9445 34.2443 35.8879 34.4028C35.8314 34.5614 35.7711 34.7183 35.707 34.8738C35.6428 35.0294 35.5749 35.1833 35.5032 35.3354C35.4314 35.4876 35.3559 35.6378 35.277 35.786C35.1978 35.9344 35.1151 36.0807 35.0288 36.225C34.9427 36.3691 34.853 36.511 34.7597 36.6508C34.6665 36.7905 34.5699 36.9277 34.47 37.0625C34.3702 37.1975 34.267 37.3298 34.1605 37.4595C34.054 37.5892 33.9444 37.7161 33.8318 37.8403C33.7192 37.9646 33.6036 38.0859 33.485 38.2043C33.3665 38.3238 33.245 38.4403 33.1207 38.5539C32.9963 38.6672 32.8693 38.7775 32.7395 38.8846C32.6097 38.9916 32.4774 39.0954 32.3425 39.1958C32.2077 39.2963 32.0704 39.3934 31.9308 39.487C31.7912 39.5804 31.6494 39.6703 31.5053 39.7567C31.3613 39.8432 31.2152 39.926 31.0671 40.005C30.919 40.0842 30.7691 40.1595 30.6174 40.231C30.4655 40.3026 30.312 40.3703 30.157 40.4342C30.0018 40.4981 29.8451 40.558 29.6871 40.614C29.529 40.67 29.3696 40.722 29.209 40.7699C29.0484 40.818 28.8867 40.862 28.7239 40.9018C28.5611 40.9416 28.3975 40.9774 28.2329 41.009C28.0684 41.0407 27.9032 41.0683 27.7373 41.0917C27.5714 41.115 27.405 41.1342 27.2382 41.1491C27.0714 41.1641 26.9043 41.1749 26.7369 41.1816C26.5696 41.1881 26.4021 41.1905 26.2347 41.1888C24.7043 41.1826 23.2938 40.823 21.8856 40.242C21.1461 40.9757 20.3449 41.6976 19.6655 42.4867C19.9248 42.7865 20.1934 43.0748 20.1617 43.505C20.1244 44.0118 19.5594 44.4984 19.2612 44.8854C19.1632 45.6739 19.2065 46.4988 19.2058 47.2938L19.2024 51.1805L19.2019 54.8869C19.2023 55.669 19.1386 56.5264 19.2829 57.2951C19.3929 57.4327 19.5628 57.4582 19.728 57.4747C20.3292 57.5352 20.968 57.4886 21.5732 57.4883L25.2114 57.4881L36.8936 57.4878L47.6151 57.4891L50.8155 57.4904C51.4859 57.4901 52.1916 57.5259 52.8566 57.4386C53.0803 55.862 52.9512 54.1537 52.9473 52.5598C52.9461 51.9892 52.8979 51.3495 53.0034 50.79C53.0434 50.578 53.1425 50.3665 53.3158 50.2335C53.5301 50.0687 53.8299 50.013 54.0926 50.0535C54.34 50.0918 54.5839 50.2062 54.7357 50.4141C55.0771 50.882 54.988 56.7222 54.843 57.5646C54.7166 58.2985 54.4188 58.6899 53.8228 59.108C53.5999 59.2644 53.3362 59.3659 53.1206 59.5238H19.0344C18.6321 59.2935 18.2026 59.0596 17.8613 58.7396C17.5313 58.4302 17.3892 58.0713 17.3106 57.6352C17.1188 56.5694 17.227 55.3429 17.2279 54.257C17.2298 51.8014 17.2947 49.3293 17.2165 46.8757L14.4382 49.6902C13.7455 50.3943 13.0592 51.1782 12.2431 51.7383C11.7159 52.1002 11.1302 52.3749 10.4967 52.4722C9.20255 52.6716 7.88755 52.3942 6.82836 51.6023C6.71049 51.514 6.59715 51.4201 6.48835 51.3207C6.37955 51.2212 6.27581 51.1167 6.17712 51.0072C6.07843 50.8974 5.98526 50.7831 5.89762 50.6643C5.80998 50.5452 5.72828 50.4223 5.65252 50.2954C5.57677 50.1684 5.50731 50.0381 5.44417 49.9043C5.38102 49.7703 5.32447 49.6336 5.27453 49.4942C5.22459 49.3549 5.1815 49.2134 5.14524 49.0696C5.10899 48.9259 5.07975 48.7807 5.05753 48.6342C4.86774 47.3528 5.14608 46.0166 5.9142 44.9691C6.79797 43.7642 8.69781 42.0642 9.80387 40.9479C10.9058 39.8355 11.9776 38.5621 13.1652 37.5509C13.3622 37.3832 13.581 37.2204 13.8437 37.1872C14.2656 37.1339 14.597 37.4044 14.913 37.6442C15.6338 36.8938 16.3642 36.1531 17.1042 35.422C16.4792 33.9711 16.1625 32.5366 16.1434 30.9552C16.1307 29.912 16.2478 28.8326 16.5763 27.8398C16.8133 27.1236 17.1498 26.4607 17.2109 25.6958C17.2882 24.7285 17.2351 23.7191 17.2336 22.7463C17.2299 20.1987 17.1399 17.6227 17.2336 15.0785C17.2676 14.1551 17.4319 13.5493 18.1188 12.9093C18.4761 12.5765 18.9002 12.4702 19.3709 12.3996C20.5448 12.2236 21.8515 12.3312 23.0428 12.3323C24.8477 12.334 26.6654 12.2864 28.4681 12.3582C28.4552 11.7508 28.5022 11.1229 28.6752 10.5388C29.0861 9.15109 30.0877 8.63835 31.2597 8ZM26.3648 39.1642C26.4987 39.1631 26.6325 39.1587 26.7662 39.151C26.8999 39.1433 27.0333 39.1322 27.1665 39.1178C27.2996 39.1035 27.4323 39.0859 27.5646 39.065C27.6969 39.044 27.8286 39.0198 27.9597 38.9923C28.0908 38.9648 28.2212 38.9342 28.3508 38.9004C28.4805 38.8664 28.6092 38.8293 28.737 38.7891C28.8648 38.7487 28.9916 38.7053 29.1173 38.6587C29.243 38.612 29.3675 38.5623 29.4908 38.5096C29.6141 38.4568 29.7361 38.401 29.8567 38.3421C29.9772 38.2832 30.0963 38.2214 30.214 38.1566C30.3316 38.0919 30.4475 38.0243 30.5618 37.9539C30.6761 37.8833 30.7887 37.8099 30.8994 37.7339C31.0102 37.6578 31.1191 37.579 31.2261 37.4976C31.3329 37.416 31.4378 37.332 31.5407 37.2454C31.6435 37.1587 31.7441 37.0695 31.8427 36.9777C31.9412 36.886 32.0374 36.792 32.1313 36.6957C32.2253 36.5991 32.3168 36.5004 32.406 36.3994C32.4952 36.2984 32.5819 36.1953 32.6661 36.09C32.7502 35.9845 32.8317 35.8772 32.9107 35.768C32.9897 35.6586 33.066 35.5473 33.1395 35.4341C33.2129 35.3209 33.2837 35.206 33.3518 35.0894C33.4197 34.9728 33.4848 34.8545 33.5469 34.7347C33.6091 34.6148 33.6684 34.4934 33.7248 34.3706C33.7812 34.2478 33.8345 34.1237 33.8848 33.9981C33.9351 33.8728 33.9823 33.7461 34.0265 33.6183C34.0706 33.4905 34.1116 33.3617 34.1495 33.2318C34.1876 33.102 34.2223 32.9713 34.2537 32.8397C34.2853 32.7081 34.3137 32.5758 34.3388 32.4429C34.364 32.3099 34.3859 32.1764 34.4046 32.0423C34.4232 31.9082 34.4387 31.7738 34.4509 31.639C34.463 31.5041 34.4718 31.3691 34.4774 31.2338C34.483 31.0986 34.4853 30.9632 34.4843 30.8278C34.4833 30.6925 34.479 30.5572 34.4716 30.422C34.4639 30.2868 34.4531 30.1519 34.439 30.0173C34.4249 29.8827 34.4075 29.7485 34.387 29.6147C34.3664 29.4809 34.3426 29.3477 34.3154 29.2151C34.2884 29.0826 34.2581 28.9507 34.2247 28.8196C34.191 28.6885 34.1544 28.5584 34.1146 28.4291C34.0749 28.2998 34.032 28.1716 33.9859 28.0445C33.9399 27.9173 33.8908 27.7914 33.8387 27.6667C33.7865 27.542 33.7314 27.4187 33.6733 27.2967C33.6152 27.1747 33.5542 27.0543 33.4901 26.9353C33.4263 26.8164 33.3595 26.6991 33.2899 26.5835C33.22 26.4679 33.1476 26.354 33.0725 26.242C32.9973 26.13 32.9194 26.0199 32.8389 25.9117C32.7584 25.8035 32.6753 25.6974 32.5897 25.5934C32.5039 25.4893 32.4158 25.3875 32.3252 25.2878C32.2345 25.1882 32.1415 25.0908 32.0462 24.9957C31.9509 24.9007 31.8534 24.8081 31.7535 24.7178C31.6536 24.6276 31.5516 24.5399 31.4475 24.4548C31.3434 24.3696 31.2373 24.2871 31.1292 24.2072C31.021 24.1274 30.9111 24.0502 30.7993 23.9758C30.6874 23.9013 30.5737 23.8297 30.4584 23.7609C30.3431 23.6922 30.2262 23.6263 30.1078 23.5633C29.9892 23.5003 29.8692 23.4403 29.7477 23.3832C29.6263 23.3262 29.5035 23.2722 29.3795 23.2213C29.2554 23.1703 29.1302 23.1225 29.0038 23.0778C28.8774 23.033 28.75 22.9915 28.6216 22.9531C28.4932 22.9146 28.364 22.8794 28.2339 22.8475C28.1038 22.8155 27.973 22.7867 27.8415 22.7612C27.71 22.7357 27.5779 22.7135 27.4453 22.6945C27.3127 22.6756 27.1798 22.6599 27.0464 22.6476C26.9131 22.6352 26.7796 22.6262 26.6458 22.6205C26.512 22.6147 26.3781 22.6123 26.2442 22.6133C26.1102 22.6142 25.9763 22.6184 25.8425 22.626C25.7088 22.6336 25.5752 22.6444 25.442 22.6586C25.3087 22.6728 25.1759 22.6903 25.0435 22.7111C24.911 22.7319 24.7792 22.756 24.648 22.7833C24.5167 22.8107 24.3862 22.8413 24.2565 22.8751C24.1267 22.9089 23.9978 22.9459 23.8699 22.9861C23.7419 23.0264 23.615 23.0697 23.4892 23.1163C23.3633 23.1628 23.2387 23.2124 23.1152 23.2651C22.9918 23.3178 22.8697 23.3736 22.7489 23.4324C22.6282 23.4911 22.509 23.5529 22.3912 23.6176C22.2735 23.6823 22.1574 23.7499 22.043 23.8203C21.9285 23.8908 21.8158 23.9641 21.7049 24.0401C21.594 24.1162 21.4851 24.1949 21.378 24.2764C21.2709 24.3579 21.1659 24.442 21.0629 24.5286C20.9599 24.6153 20.8591 24.7045 20.7604 24.7962C20.6618 24.8879 20.5654 24.982 20.4714 25.0785C20.3773 25.175 20.2856 25.2737 20.1963 25.3747C20.107 25.4758 20.0202 25.579 19.936 25.6843C19.8517 25.7897 19.77 25.897 19.691 26.0064C19.6119 26.1158 19.5356 26.2271 19.4619 26.3403C19.3883 26.4535 19.3174 26.5685 19.2493 26.6852C19.1813 26.8019 19.1161 26.9202 19.0538 27.0401C18.9915 27.1601 18.9321 27.2815 18.8757 27.4044C18.8193 27.5273 18.7659 27.6515 18.7155 27.7771C18.6651 27.9026 18.6178 28.0294 18.5735 28.1573C18.5293 28.2852 18.4882 28.4141 18.4502 28.544C18.4123 28.6739 18.3775 28.8047 18.3459 28.9364C18.3143 29.0681 18.2859 29.2005 18.2607 29.3335C18.2355 29.4666 18.2136 29.6002 18.1949 29.7344C18.1762 29.8685 18.1608 30.0031 18.1486 30.138C18.1364 30.273 18.1276 30.4081 18.122 30.5435C18.1164 30.6789 18.1141 30.8143 18.1151 30.9498C18.1161 31.0853 18.1203 31.2206 18.1279 31.3559C18.1355 31.4912 18.1463 31.6262 18.1604 31.7609C18.1746 31.8956 18.1919 32.03 18.2126 32.1638C18.2332 32.2977 18.2571 32.431 18.2843 32.5637C18.3114 32.6963 18.3417 32.8283 18.3752 32.9595C18.4087 33.0906 18.4454 33.2209 18.4853 33.3503C18.5252 33.4796 18.5681 33.6079 18.6142 33.7351C18.6603 33.8624 18.7095 33.9883 18.7617 34.113C18.8139 34.2379 18.8691 34.3614 18.9273 34.4835C18.9855 34.6054 19.0466 34.7259 19.1107 34.8449C19.1747 34.9639 19.2416 35.0812 19.3114 35.1968C19.3812 35.3126 19.4537 35.4265 19.529 35.5387C19.6043 35.6507 19.6822 35.7608 19.7629 35.869C19.8435 35.9772 19.9267 36.0833 20.0125 36.1874C20.0983 36.2915 20.1866 36.3934 20.2774 36.4932C20.3681 36.5928 20.4612 36.6902 20.5567 36.7853C20.6522 36.8803 20.7499 36.9729 20.8499 37.0633C20.9499 37.1534 21.052 37.2411 21.1562 37.3263C21.2604 37.4113 21.3667 37.4938 21.4749 37.5736C21.5832 37.6535 21.6933 37.7307 21.8053 37.8052C21.9172 37.8796 22.031 37.9511 22.1464 38.0198C22.2619 38.0885 22.379 38.1544 22.4977 38.2174C22.6163 38.2803 22.7364 38.3402 22.858 38.3972C22.9796 38.4542 23.1025 38.5082 23.2267 38.559C23.3509 38.6098 23.4762 38.6576 23.6027 38.7022C23.7293 38.7469 23.8568 38.7884 23.9853 38.8267C24.1138 38.865 24.2432 38.9001 24.3735 38.932C24.5037 38.9638 24.6346 38.9924 24.7663 39.0178C24.8979 39.0432 25.0301 39.0654 25.1628 39.0843C25.2955 39.103 25.4285 39.1185 25.562 39.1307C25.6955 39.1429 25.8291 39.1518 25.963 39.1575C26.0969 39.163 26.2308 39.1652 26.3648 39.1642ZM18.3122 41.0018C18.9132 40.3716 19.5804 39.7603 20.139 39.0954C19.7199 38.7525 19.3256 38.3998 18.945 38.0134C18.6927 37.7573 18.4428 37.4273 18.1565 37.2171C17.5512 37.85 16.9365 38.4734 16.3126 39.0874C16.6395 39.4903 17.8736 40.8899 18.3122 41.0018ZM32.9484 10.0271C32.2174 10.0399 31.4352 10.0103 30.8877 10.5969C29.7727 11.7912 31.6016 14.2912 29.1128 14.4015C28.3194 14.4367 26.0645 14.4975 25.3878 14.3678C25.3674 14.9267 25.2286 15.7902 25.6331 16.2339C25.9369 16.5671 26.6893 16.5637 27.1099 16.5699C31.1466 16.6295 35.1936 16.5695 39.2315 16.5692L43.6014 16.5729C44.4348 16.5729 45.3656 16.6457 46.1868 16.4933C46.5315 16.2324 46.7178 16.0007 46.7784 15.5492C46.8273 15.1839 46.7978 14.7847 46.7914 14.4157C46.0073 14.4033 45.2232 14.3977 44.4389 14.3989C43.8588 14.4032 43.2376 14.4574 42.6653 14.3725C42.4037 14.3337 42.1201 14.2719 41.9331 14.0694C41.0492 13.1131 42.7815 10.2039 39.9411 10.0391C38.8302 9.97464 37.7028 10.0115 36.5899 10.0126C35.3786 10.0137 34.1589 9.98574 32.9484 10.0271ZM13.9493 39.6657C12.6718 40.7544 11.5206 42.0765 10.337 43.2703C9.42294 44.1924 8.23802 45.1723 7.50106 46.2144C7.20426 46.6341 7.01882 47.1107 6.97421 47.6259C6.91317 48.3305 7.12754 48.9918 7.57753 49.5315C8.07141 50.1238 8.65992 50.4481 9.42625 50.5125C9.79896 50.544 10.206 50.5105 10.5522 50.3618C10.8644 50.2356 11.1177 50.0833 11.3776 49.8669C12.3068 49.0938 13.1493 48.1306 14.0017 47.2678C15.2559 45.9985 16.5499 44.7496 17.7586 43.4365C17.1109 42.7827 14.4806 39.9432 13.9493 39.6657Z" fill="#EE021B"/>
<path d="M34.2322 12.2747C35.1841 12.2345 37.5032 12.096 38.2716 12.402C38.5167 12.4997 38.7531 12.6671 38.8533 12.9232C38.9511 13.1728 38.8999 13.4666 38.799 13.7066C38.653 14.0534 38.3549 14.1805 38.0341 14.3163C37.1515 14.3754 34.4554 14.4889 33.7356 14.1208C33.5328 14.0171 33.3567 13.8602 33.2889 13.6345C33.2031 13.3476 33.3134 12.9771 33.4589 12.726C33.6342 12.423 33.9203 12.3562 34.2322 12.2747Z" fill="#EE021B"/>
<path d="M52.8964 34.2699C52.8954 33.7058 53.3532 33.2483 53.9174 33.2499C54.4787 33.2514 54.9328 33.7068 54.9328 34.2681V45.3773C54.9328 45.9342 54.4814 46.3856 53.9245 46.3856C53.3684 46.3856 52.9172 45.9353 52.9162 45.3791L52.8964 34.2699Z" fill="#EE021B"/>
</svg>
