<svg width="20" height="20" viewBox="0 0 20 20" fill="none" xmlns="http://www.w3.org/2000/svg">
<path fill-rule="evenodd" clip-rule="evenodd" d="M9.1665 3.33317C5.94484 3.33317 3.33317 5.94484 3.33317 9.1665C3.33317 12.3882 5.94484 14.9998 9.1665 14.9998C12.3882 14.9998 14.9998 12.3882 14.9998 9.1665C14.9998 5.94484 12.3882 3.33317 9.1665 3.33317ZM1.6665 9.1665C1.6665 5.02437 5.02437 1.6665 9.1665 1.6665C13.3086 1.6665 16.6665 5.02437 16.6665 9.1665C16.6665 13.3086 13.3086 16.6665 9.1665 16.6665C5.02437 16.6665 1.6665 13.3086 1.6665 9.1665Z" fill="#212121"/>
<path fill-rule="evenodd" clip-rule="evenodd" d="M13.2861 13.2861C13.6115 12.9606 14.1391 12.9606 14.4646 13.2861L18.0896 16.9111C18.415 17.2365 18.415 17.7641 18.0896 18.0896C17.7641 18.415 17.2365 18.415 16.9111 18.0896L13.2861 14.4646C12.9606 14.1391 12.9606 13.6115 13.2861 13.2861Z" fill="#212121"/>
</svg>
