<svg width="16" height="16" viewBox="0 0 16 16" fill="none" xmlns="http://www.w3.org/2000/svg">
<path fill-rule="evenodd" clip-rule="evenodd" d="M5.9859 2.67955C5.3725 2.35935 4.47142 2.21753 3.85875 2.51726C3.68161 2.60425 3.60036 2.71975 3.54546 2.90325C3.48617 3.10063 3.47372 3.31336 3.45762 3.60359L3.4503 3.72567L3.47226 4.1548C3.5442 5.59803 3.91982 7.00994 4.57464 8.29851C5.22946 9.58707 6.1488 10.7234 7.27274 11.6334L7.95348 12.1846C8.76827 12.8436 9.72731 13.3012 10.7526 13.5202L10.9092 13.5531C11.1874 13.6131 11.3865 13.6555 11.5827 13.6482C11.7584 13.643 11.8857 13.5984 12.0167 13.4435C12.2642 13.1496 12.4391 12.7541 12.513 12.341C12.5862 11.936 12.5518 11.572 12.4515 11.3183C12.4189 11.2572 12.3733 11.2039 12.318 11.1623C12.2626 11.1206 12.1987 11.0915 12.1309 11.0771L11.5761 10.9623L10.4254 10.7466C10.3871 10.7629 10.351 10.7838 10.3178 10.8088L10.3105 10.8146C10.2801 10.843 10.2506 10.8723 10.2219 10.9023C10.2131 10.9101 10.2041 10.9192 10.1948 10.9294L10.1919 10.9323C10.0754 11.0575 9.94182 11.1658 9.79516 11.254C9.39623 11.4806 8.97095 11.444 8.62106 11.3242C8.10866 11.1494 7.74633 10.7773 7.51429 10.5324L6.85843 9.84014C6.48056 9.44154 6.13542 9.01323 5.82633 8.55934L5.68725 8.35465C5.65114 8.3025 5.60722 8.2411 5.55549 8.17043C5.39226 7.94307 5.16974 7.63311 5.02773 7.34508L4.95014 7.18206C4.54755 6.29895 5.05555 5.41804 5.77289 5.0708C5.82406 5.04586 5.86788 5.0081 5.90008 4.96121C5.93228 4.91432 5.95176 4.85989 5.95662 4.80323L6.05398 3.61163L6.09717 2.91494C6.09981 2.86965 6.09101 2.82441 6.07157 2.78341C6.05213 2.7424 6.02267 2.7062 5.9859 2.67955ZM10.6011 14.2359L10.4488 14.9501C9.19725 14.6833 8.02649 14.125 7.03191 13.3206L6.35116 12.7694C5.06712 11.7301 4.01679 10.4323 3.26863 8.96042C2.52047 7.48857 2.09127 5.87578 2.00902 4.22717L1.9834 3.71763L1.98633 3.67669L1.99291 3.55388C2.00755 3.27389 2.02878 2.86304 2.14224 2.48436C2.28864 1.99602 2.5968 1.50622 3.2146 1.20357C4.40554 0.622386 5.82487 0.946239 6.66445 1.38487C6.95143 1.54314 7.18763 1.77939 7.34568 2.06623C7.50373 2.35308 7.57717 2.67878 7.55748 3.00559L7.51356 3.7169L7.41474 4.92166C7.3893 5.23169 7.28345 5.52976 7.10761 5.78652C6.93177 6.04327 6.692 6.24986 6.41192 6.38595C6.35652 6.41048 6.31128 6.45334 6.28382 6.5073C6.2775 6.51894 6.27446 6.53208 6.27504 6.54531C6.27406 6.55165 6.2765 6.5614 6.28236 6.57456C6.30188 6.61842 6.3214 6.65985 6.34092 6.69883C6.42583 6.8699 6.53489 7.02196 6.67251 7.21349C6.74058 7.3078 6.81524 7.41087 6.89723 7.53149L7.0363 7.73619C7.30156 8.12534 7.59775 8.49254 7.92201 8.83422L8.57787 9.52652C8.81503 9.77727 8.95997 9.89423 9.09392 9.94029L9.11002 9.94468L9.14516 9.90958L9.16346 9.89058C9.22348 9.82771 9.33987 9.70636 9.48041 9.60839C9.72928 9.43514 10.1502 9.20632 10.6743 9.30501L11.8601 9.52725L12.4289 9.64495C13.0144 9.76703 13.5071 10.1523 13.772 10.6852L13.7823 10.7057L13.7911 10.7269C14.0341 11.3015 14.0663 11.9748 13.9543 12.5984C13.8416 13.2271 13.5708 13.8689 13.136 14.385C12.6916 14.9114 12.1434 15.0927 11.631 15.1088C11.2372 15.1219 10.8368 15.0342 10.5681 14.9757L10.4518 14.9509L10.6011 14.2345V14.2359Z" fill="#212121"/>
</svg>
