<svg width="16" height="14" viewBox="0 0 16 14" fill="none" xmlns="http://www.w3.org/2000/svg">
<path d="M14.8155 0.00145061C14.6179 0.0157257 14.424 0.0608731 14.2412 0.135162H14.2387C14.0633 0.202917 13.2293 0.54469 11.9613 1.06275L7.41748 2.92691C4.15703 4.26402 0.951991 5.58075 0.951991 5.58075L0.990154 5.56636C0.990154 5.56636 0.76918 5.63711 0.538358 5.79121C0.395434 5.87921 0.27265 5.99493 0.17766 6.13119C0.0644027 6.29308 -0.0266951 6.54071 0.00715884 6.79674C0.0625562 7.22966 0.350622 7.48928 0.557439 7.63259C0.766718 7.77769 0.966148 7.84545 0.966148 7.84545H0.971073L3.97669 8.83179C4.11149 9.25331 4.89259 11.7549 5.08032 12.3311C5.19112 12.6752 5.29884 12.8905 5.43364 13.0548C5.49806 13.1387 5.57582 13.2089 5.66692 13.2653C5.71424 13.293 5.76517 13.3143 5.81834 13.3288L5.78756 13.3216C5.7968 13.324 5.80418 13.3312 5.81095 13.3336C5.83557 13.3402 5.85219 13.3426 5.88359 13.3474C6.35939 13.4877 6.74163 13.1999 6.74163 13.1999L6.76317 13.1831L8.53773 11.6092L11.512 13.8319L11.5797 13.8601C12.1995 14.1251 12.8273 13.9776 13.1591 13.7174C13.4933 13.4553 13.6232 13.1202 13.6232 13.1202L13.6448 13.0662L15.9431 1.59639C16.0084 1.31338 16.025 1.04836 15.953 0.791127C15.8791 0.530612 15.7075 0.306588 15.4722 0.163343C15.275 0.0464206 15.0461 -0.00998721 14.8155 0.00145061ZM14.7533 1.23064C14.7509 1.26841 14.7582 1.26421 14.741 1.33677V1.34336L12.4642 12.6938C12.4543 12.71 12.4377 12.7454 12.3922 12.7808C12.3441 12.818 12.306 12.8413 12.1059 12.764L8.46818 10.0472L6.27075 11.9983L6.7324 9.1262L12.6759 3.72978C12.9209 3.50793 12.839 3.46116 12.839 3.46116C12.8563 3.18894 12.4691 3.38141 12.4691 3.38141L4.97445 7.90421L4.97199 7.89222L1.37978 6.714V6.7116L1.37055 6.7098L1.38901 6.70261L1.40871 6.69301L1.42779 6.68642C1.42779 6.68642 4.6353 5.36969 7.89574 4.03258C9.52812 3.36282 11.1728 2.68827 12.4377 2.16781C13.1879 1.86022 13.9388 1.55442 14.6905 1.25042C14.741 1.23124 14.717 1.23064 14.7533 1.23064Z" fill="#FAFAFA"/>
</svg>
